<svg width="32" height="28" viewBox="0 0 32 28" fill="none" xmlns="http://www.w3.org/2000/svg">
<g clip-path="url(#clip0_10344_58340)">
<path d="M15.4286 0.928191C17.0805 0.975708 18.5725 1.9454 19.2874 3.44603L22.1242 9.41368L22.1698 9.29835C22.2825 9.00091 22.3748 8.69616 22.4462 8.3862L22.4859 8.20138C22.9639 5.81117 25.2871 4.26422 27.6818 4.73713C28.2505 4.85074 28.7913 5.0753 29.2733 5.39797C29.7552 5.72064 30.1689 6.13511 30.4906 6.61769C30.8123 7.10027 31.0358 7.64151 31.1483 8.21049C31.2608 8.77947 31.2601 9.36504 31.1463 9.93375C30.5091 13.1158 28.8665 16.0689 26.5104 18.4085L26.4358 18.481L27.4303 20.572C28.5846 22.9992 27.3887 25.933 24.8754 26.7563L24.7619 26.7918L24.6754 26.8179C24.2908 26.9262 23.8933 26.9813 23.4938 26.9819C22.6586 26.9819 21.8405 26.7453 21.1343 26.2994C20.4281 25.8535 19.8627 25.2165 19.5037 24.4625L18.736 22.8485L18.5424 22.8965C17.5046 23.1418 16.4521 23.2776 15.399 23.2985L15.1119 23.3014C14.0985 23.3014 13.0684 23.1835 12.0392 22.9551L11.8363 22.9079L11.0988 24.4584C10.6016 25.5039 9.71344 26.3123 8.62585 26.7092L8.49452 26.7548C7.92807 26.9416 7.32963 27.0116 6.73536 26.9606C6.14109 26.9096 5.56332 26.7387 5.03695 26.4582C2.94044 25.3438 2.141 22.7349 3.16394 20.58L4.07967 18.6543L3.99968 18.5767C2.74428 17.3383 1.74904 15.9306 1.08881 14.4175L1.00081 14.2106L0.98816 14.177C0.0794732 11.9177 1.17071 9.34587 3.42863 8.43169C5.19968 7.71474 7.16295 8.22956 8.37024 9.57522L8.39292 9.60124L11.3116 3.46191C11.6576 2.72241 12.2025 2.09376 12.8854 1.64625C13.5682 1.19875 14.3621 0.950043 15.1783 0.927952L15.3018 0.926758L15.4286 0.928191Z" fill="white"/>
<path d="M11.0699 21.2287L13.6841 15.7286C11.6874 15.3045 9.67842 14.0694 8.54217 12.5669L5.80859 18.3138C7.32761 19.6024 9.15143 20.6153 11.0699 21.2287Z" fill="#1A007F"/>
<path d="M21.9791 12.4021C20.6658 14.0119 18.8421 15.2058 16.8906 15.6709L19.4966 21.1545C21.3986 20.5122 23.177 19.4748 24.7128 18.1452L21.9791 12.4021Z" fill="#4E000A"/>
<path d="M5.80713 18.3138L4.44034 21.1875C3.74453 22.6489 4.26734 24.448 5.70004 25.2096C7.21917 26.0165 9.08824 25.3867 9.82106 23.851L11.0685 21.2287C9.14216 20.6076 7.35516 19.6177 5.80713 18.3138Z" fill="#1A007F"/>
<path d="M27.4045 6.12811C27.0179 6.05071 26.6199 6.05023 26.2332 6.12669C25.8465 6.20315 25.4786 6.35506 25.1506 6.57373C24.8225 6.7924 24.5408 7.07355 24.3215 7.40113C24.1022 7.7287 23.9495 8.09628 23.8723 8.48286C23.5841 9.92392 22.9089 11.2659 21.9785 12.4063L24.708 18.1534C27.2275 15.9674 29.0883 12.991 29.7553 9.6603C30.0805 8.03001 29.0265 6.44915 27.4045 6.12811Z" fill="#FF9396"/>
<path d="M16.8897 15.6711C16.3052 15.811 15.7082 15.8851 15.1113 15.8851C14.6461 15.8851 14.1645 15.8316 13.6827 15.7287C11.686 15.3046 9.67705 14.0695 8.54081 12.567C8.25666 12.1923 8.02623 11.8012 7.86565 11.4019C7.24398 9.86625 5.4943 9.12531 3.95869 9.7428C2.42308 10.3645 1.68226 12.1141 2.29963 13.6496C3.00356 15.3951 4.2469 16.9967 5.80723 18.314C7.35376 19.6177 9.13938 20.6077 11.0644 21.2288C12.3859 21.6528 13.7568 21.8875 15.1072 21.8875C16.6057 21.8875 18.0836 21.6281 19.4916 21.1547L16.8897 15.6711Z" fill="#002DC8"/>
<path d="M26.1486 21.175L24.7077 18.1451L21.9782 12.402L21.9742 12.4062C21.9742 12.4062 21.9742 12.402 21.9782 12.402L18.0097 4.053C17.766 3.54078 17.3823 3.10806 16.9028 2.80497C16.4234 2.50188 15.8679 2.34082 15.3007 2.34045C14.1438 2.34045 13.0899 3.00737 12.5918 4.05312L8.54492 12.5668C9.68117 14.0693 11.6902 15.3044 13.6869 15.7285L14.996 12.9784C15.1196 12.719 15.49 12.719 15.6136 12.9784L16.8939 15.6708H16.9022H16.8938L19.4999 21.1545L20.7802 23.8469C21.0237 24.3601 21.4079 24.7936 21.8882 25.0968C22.3686 25.4 22.9252 25.5605 23.4932 25.5595C23.7609 25.5595 24.0284 25.5225 24.2919 25.4484C26.0992 24.9502 26.9555 22.8712 26.1486 21.175Z" fill="#FF536A"/>
</g>
<defs>
<clipPath id="clip0_10344_58340">
<rect width="30.5641" height="26.1467" fill="white" transform="translate(0.667969 0.926758)"/>
</clipPath>
</defs>
</svg>
