<svg width="20" height="20" viewBox="0 0 20 20" fill="inherit" xmlns="http://www.w3.org/2000/svg">
<path d="M10.0039 13.5C10.0039 15.375 10.9102 17.0312 12.3164 18H2.00391C0.878906 18 0.00390625 17.125 0.00390625 16V9C0.00390625 7.90625 0.878906 7 2.00391 7H14.0039C14.7227 7 15.3789 7.40625 15.7227 8.03125C15.6602 8.03125 15.5664 8 15.5039 8C12.4414 8 10.0039 10.4688 10.0039 13.5ZM12.75 4.5C13.1562 4.5 13.5 4.84375 13.5 5.25C13.5 5.6875 13.1562 6 12.75 6H3.25C2.8125 6 2.5 5.6875 2.5 5.25C2.5 4.84375 2.8125 4.5 3.25 4.5H12.75Z"/>
<path d="M15.5068 18C13.8896 18 12.4131 17.1562 11.6045 15.75C10.7959 14.3613 10.7959 12.6562 11.6045 11.25C12.4131 9.86133 13.8896 9 15.5068 9C17.1064 9 18.583 9.86133 19.3916 11.25C20.2002 12.6562 20.2002 14.3613 19.3916 15.75C18.583 17.1562 17.1064 18 15.5068 18ZM17.7744 13.0605L15.7881 11.0918C15.6299 10.9336 15.3662 10.9336 15.208 11.0918L13.2393 13.0605C13.0635 13.2363 13.0635 13.5 13.2393 13.6582C13.3975 13.834 13.6611 13.834 13.8369 13.6582L15.085 12.4102V15.6094C15.085 15.8555 15.2607 16.0312 15.5068 16.0312C15.7354 16.0312 15.9287 15.8555 15.9287 15.6094V12.4102L17.1768 13.6582C17.335 13.834 17.5986 13.834 17.7744 13.6582C17.9326 13.5 17.9326 13.2363 17.7744 13.0605Z"/>
</svg>
