<svg width="25" height="28" viewBox="0 0 25 28" fill="none" xmlns="http://www.w3.org/2000/svg">
<g clip-path="url(#clip0_10344_58322)">
<path fill-rule="evenodd" clip-rule="evenodd" d="M23.0938 7.05062L23.7188 5.51895C23.7188 5.51895 22.9234 4.6677 21.9576 3.70312C20.9921 2.73854 18.9471 3.30604 18.9471 3.30604L16.6184 0.66687L8.4388 0.66687L6.11005 3.30604C6.11005 3.30604 4.06505 2.73854 3.09964 3.70312C2.1338 4.6677 1.3388 5.51895 1.3388 5.51895L1.9638 7.05062L1.16797 9.32021C1.16797 9.32021 3.50714 18.1685 3.7813 19.2494C4.32089 21.3769 4.69005 22.1994 6.2238 23.2777C7.75714 24.3556 10.5405 26.2277 10.9946 26.5119C11.4492 26.7952 12.0176 27.2785 12.5288 27.2785C13.0401 27.2785 13.608 26.7952 14.0621 26.5119C14.5167 26.2281 17.2996 24.3556 18.8338 23.2777C20.3671 22.1998 20.7367 21.3769 21.2763 19.2494C21.5501 18.1685 23.8888 9.32021 23.8888 9.32021L23.0938 7.05062Z" fill="url(#paint0_linear_10344_58322)"/>
<path fill-rule="evenodd" clip-rule="evenodd" d="M15.429 5.46194C15.7698 5.46194 18.2977 4.97986 18.2977 4.97986C18.2977 4.97986 21.2932 8.59653 21.2932 9.36986C21.2932 10.009 21.0352 10.259 20.7319 10.554C20.6686 10.6157 20.6027 10.679 20.5373 10.749L18.2915 13.1311C18.2674 13.1564 18.2429 13.1814 18.2182 13.2061C17.994 13.4311 17.664 13.7628 17.8965 14.3136L17.9444 14.4257C18.1998 15.0224 18.5152 15.759 18.114 16.5049C17.6869 17.299 16.9557 17.829 16.4869 17.7411C16.0186 17.6536 14.9177 17.079 14.5132 16.8169C14.1086 16.5544 12.8257 15.4978 12.8257 15.0932C12.8257 14.7561 13.7482 14.1953 14.1965 13.9224C14.2857 13.8682 14.3561 13.8257 14.3965 13.7982C14.4427 13.7669 14.5202 13.719 14.6157 13.6599C15.0244 13.4057 15.7632 12.9474 15.7819 12.7444C15.8048 12.4936 15.7961 12.4203 15.4661 11.8011C15.3961 11.6694 15.314 11.5286 15.2294 11.3828C14.9152 10.8432 14.5636 10.239 14.6419 9.80611C14.7294 9.31736 15.4961 9.03736 16.1452 8.79986C16.2261 8.77069 16.3057 8.74153 16.3815 8.71278L17.0577 8.45903C17.7061 8.21653 18.4261 7.94694 18.5452 7.89236C18.7094 7.81694 18.6669 7.74444 18.169 7.69736C18.0884 7.68946 18.0078 7.68112 17.9273 7.67236C17.3107 7.60694 16.1736 7.48653 15.6211 7.64028C15.5123 7.67069 15.3907 7.70361 15.2627 7.7382C14.6419 7.90611 13.8807 8.11194 13.8073 8.23069C13.7948 8.25153 13.7823 8.26944 13.7702 8.28611C13.7002 8.38528 13.6548 8.45028 13.7323 8.87194C13.7552 8.99778 13.8027 9.24486 13.8615 9.55069C14.0323 10.4457 14.3002 11.8415 14.334 12.1549C14.3386 12.199 14.344 12.2411 14.349 12.2819C14.3919 12.6319 14.4202 12.8649 14.0136 12.9578L13.9073 12.9819C13.4482 13.0869 12.7752 13.2415 12.5323 13.2415C12.289 13.2415 11.6157 13.0874 11.1565 12.9819L11.0507 12.9578C10.644 12.8649 10.6727 12.6319 10.7157 12.2819C10.7207 12.2411 10.7257 12.1986 10.7302 12.1549C10.764 11.8411 11.0323 10.4415 11.204 9.54694C11.2623 9.24278 11.3094 8.99694 11.3323 8.87194C11.4094 8.45028 11.364 8.38528 11.294 8.28611C11.2811 8.26791 11.2686 8.24943 11.2565 8.23069C11.184 8.11194 10.4232 7.90611 9.8019 7.7382C9.67399 7.70361 9.5519 7.67069 9.44357 7.64028C8.89065 7.48611 7.75398 7.60694 7.13732 7.67236C7.04315 7.68236 6.96148 7.69111 6.89565 7.69736C6.39732 7.74444 6.35523 7.81694 6.5194 7.89236C6.63815 7.94694 7.35815 8.21653 8.00607 8.45903C8.25482 8.55195 8.49357 8.64111 8.68274 8.71278C8.75899 8.74153 8.83815 8.77028 8.9194 8.80028C9.56857 9.03778 10.3352 9.31736 10.4227 9.80611C10.5007 10.239 10.149 10.8432 9.83524 11.3828C9.75024 11.5286 9.66857 11.6694 9.59815 11.8011C9.26857 12.4203 9.25982 12.4936 9.28273 12.7444C9.30107 12.9478 10.0394 13.4057 10.4486 13.6599C10.544 13.719 10.6215 13.7669 10.6677 13.7982C10.7086 13.8257 10.7786 13.8682 10.8677 13.9224C11.3161 14.1949 12.2386 14.7557 12.2386 15.0932C12.2386 15.4974 10.9561 16.5544 10.5511 16.8169C10.1469 17.0794 9.04607 17.6536 8.57732 17.7411C8.10898 17.8286 7.37732 17.299 6.95065 16.5053C6.5494 15.759 6.8644 15.0224 7.11982 14.4261L7.16773 14.3136C7.40065 13.7628 7.07065 13.4311 6.84607 13.2061C6.82143 13.1814 6.79712 13.1564 6.77315 13.1311L4.52732 10.749C4.46148 10.6794 4.39565 10.6157 4.33232 10.554C4.02898 10.2594 3.77148 10.009 3.77148 9.36986C3.77148 8.59694 6.7669 4.97986 6.7669 4.97986C6.7669 4.97986 9.2944 5.46195 9.63523 5.46195C9.90732 5.46195 10.4323 5.28153 10.9798 5.09319C11.1186 5.04569 11.2586 4.99736 11.3965 4.95153C12.0777 4.72444 12.5323 4.72278 12.5323 4.72278C12.5323 4.72278 12.9865 4.72444 13.6682 4.95153C13.8057 4.99736 13.9461 5.04569 14.0848 5.09319C14.6319 5.28153 15.1573 5.46194 15.429 5.46194ZM14.9952 18.2561C15.5294 18.5311 15.9086 18.7261 16.0519 18.8157C16.2373 18.9315 16.1244 19.1503 15.9552 19.2699C15.7865 19.3886 13.5165 21.1444 13.2965 21.3386L13.2069 21.4182C12.9948 21.6094 12.724 21.8532 12.5319 21.8532C12.3402 21.8532 12.0694 21.609 11.8569 21.4182L11.7682 21.3386C11.5473 21.1444 9.27773 19.3886 9.10898 19.2694C8.94023 19.1503 8.8269 18.9319 9.01232 18.8153C9.15565 18.7261 9.53524 18.5307 10.0702 18.2553L10.5786 17.9932C11.3786 17.5799 12.3765 17.2278 12.5323 17.2278C12.6877 17.2278 13.6852 17.5794 14.4861 17.9932C14.6677 18.0874 14.8382 18.1757 14.9952 18.2561Z" fill="white"/>
<path fill-rule="evenodd" clip-rule="evenodd" d="M18.951 3.30604L16.6223 0.66687L8.44268 0.66687L6.11393 3.30604C6.11393 3.30604 4.06893 2.73854 3.10352 3.70312C3.10352 3.70312 5.83018 3.45729 6.76727 4.97979C6.76727 4.97979 9.29477 5.46187 9.6356 5.46187C9.97643 5.46187 10.7148 5.17854 11.3964 4.95145C12.0781 4.72437 12.5327 4.7227 12.5327 4.7227C12.5327 4.7227 12.9869 4.72437 13.6685 4.95145C14.3502 5.17854 15.0885 5.46187 15.4294 5.46187C15.7702 5.46187 18.2981 4.97979 18.2981 4.97979C19.2352 3.45729 21.9614 3.70312 21.9614 3.70312C20.996 2.73854 18.951 3.30604 18.951 3.30604Z" fill="url(#paint1_linear_10344_58322)"/>
</g>
<defs>
<linearGradient id="paint0_linear_10344_58322" x1="1.16839" y1="27.4665" x2="23.8888" y2="27.4665" gradientUnits="userSpaceOnUse">
<stop stop-color="#FF5500"/>
<stop offset="0.41" stop-color="#FF5500"/>
<stop offset="0.582" stop-color="#FF2000"/>
<stop offset="1" stop-color="#FF2000"/>
</linearGradient>
<linearGradient id="paint1_linear_10344_58322" x1="3.50852" y1="5.44437" x2="21.9614" y2="5.44437" gradientUnits="userSpaceOnUse">
<stop stop-color="#FF452A"/>
<stop offset="1" stop-color="#FF2000"/>
</linearGradient>
<clipPath id="clip0_10344_58322">
<rect width="23.3333" height="26.6667" fill="white" transform="translate(0.888672 0.666748)"/>
</clipPath>
</defs>
</svg>
