<svg width="34" height="34" viewBox="0 0 34 34" fill="none" xmlns="http://www.w3.org/2000/svg">
<path d="M18.2401 5.09333V8.4C18.2401 9.12333 17.6718 9.64 17.0001 9.64C16.2768 9.64 15.7601 9.12333 15.7601 8.4V5.09333C15.7601 4.42167 16.2768 3.85333 17.0001 3.85333C17.6718 3.85333 18.2401 4.42167 18.2401 5.09333ZM26.3518 9.485L23.9751 11.8617C23.5101 12.3267 22.7351 12.3267 22.2184 11.8617C21.7534 11.345 21.7534 10.57 22.2184 10.105L24.5951 7.72833C25.0601 7.26333 25.8351 7.26333 26.3518 7.72833C26.8168 8.245 26.8168 9.02 26.3518 9.485ZM9.35344 7.72833L11.7301 10.105C12.1951 10.57 12.1951 11.345 11.7301 11.8617C11.2134 12.3267 10.4384 12.3267 9.97344 11.8617L7.64844 9.485C7.13177 9.02 7.13177 8.245 7.64844 7.72833C8.11344 7.26333 8.88844 7.26333 9.35344 7.72833ZM5.01344 15.84H8.3201C8.99177 15.84 9.5601 16.4083 9.5601 17.08C9.5601 17.8033 8.99177 18.32 8.3201 18.32H5.01344C4.2901 18.32 3.77344 17.8033 3.77344 17.08C3.77344 16.4083 4.2901 15.84 5.01344 15.84ZM25.6801 15.84H28.9868C29.6584 15.84 30.2268 16.4083 30.2268 17.08C30.2268 17.8033 29.6584 18.32 28.9868 18.32H25.6801C24.9568 18.32 24.4401 17.8033 24.4401 17.08C24.4401 16.4083 24.9568 15.84 25.6801 15.84ZM11.7301 24.1067L9.35344 26.4317C8.88844 26.9483 8.11344 26.9483 7.64844 26.4317C7.13177 25.9667 7.13177 25.1917 7.64844 24.7267L9.97344 22.35C10.4384 21.885 11.2134 21.885 11.7301 22.35C12.1951 22.8667 12.1951 23.6417 11.7301 24.1067ZM23.9751 22.35L26.3518 24.7267C26.8168 25.1917 26.8168 25.9667 26.3518 26.4317C25.8351 26.9483 25.0601 26.9483 24.5951 26.4317L22.2184 24.1067C21.7534 23.6417 21.7534 22.8667 22.2184 22.35C22.7351 21.885 23.5101 21.885 23.9751 22.35ZM18.2401 25.76V29.0667C18.2401 29.79 17.6718 30.3067 17.0001 30.3067C16.2768 30.3067 15.7601 29.79 15.7601 29.0667V25.76C15.7601 25.0883 16.2768 24.52 17.0001 24.52C17.6718 24.52 18.2401 25.0883 18.2401 25.76ZM20.3068 17.08C20.3068 15.9433 19.6351 14.8583 18.6534 14.2383C17.6201 13.67 16.3284 13.67 15.3468 14.2383C14.3134 14.8583 13.6934 15.9433 13.6934 17.08C13.6934 18.2683 14.3134 19.3533 15.3468 19.9733C16.3284 20.5417 17.6201 20.5417 18.6534 19.9733C19.6351 19.3533 20.3068 18.2683 20.3068 17.08ZM11.2134 17.08C11.2134 15.0133 12.2984 13.1533 14.1068 12.12C15.8634 11.035 18.0851 11.035 19.8934 12.12C21.6501 13.1533 22.7868 15.0133 22.7868 17.08C22.7868 19.1983 21.6501 21.0583 19.8934 22.0917C18.0851 23.1767 15.8634 23.1767 14.1068 22.0917C12.2984 21.0583 11.2134 19.1983 11.2134 17.08Z"/>
</svg>
