<svg width="27" height="28" viewBox="0 0 27 28" fill="none" xmlns="http://www.w3.org/2000/svg">
<g clip-path="url(#clip0_10344_58316)">
<path d="M13.6667 20.6651C17.3486 20.6651 20.3333 17.6804 20.3333 13.9985C20.3333 10.3165 17.3486 7.33179 13.6667 7.33179C9.98476 7.33179 7 10.3165 7 13.9985C7 17.6804 9.98476 20.6651 13.6667 20.6651Z" fill="white"/>
<path d="M7.89339 17.3334L2.12081 7.33496C0.950327 9.36163 0.334065 11.6608 0.333984 14.0012C0.333904 16.3416 0.95001 18.6407 2.12035 20.6675C3.2907 22.6942 4.97403 24.3772 7.00108 25.547C9.02812 26.7168 11.3274 27.3324 13.6678 27.3317L19.4404 17.3334V17.3316C18.8557 18.3455 18.0144 19.1876 17.0009 19.7731C15.9875 20.3587 14.8378 20.667 13.6674 20.6672C12.497 20.6674 11.3471 20.3594 10.3336 19.7741C9.32002 19.1889 8.47837 18.3471 7.89339 17.3334Z" fill="url(#paint0_linear_10344_58316)"/>
<path d="M19.4429 17.3331L13.6704 27.3314C16.0108 27.3318 18.31 26.7159 20.3369 25.5458C22.3638 24.3756 24.0468 22.6925 25.2169 20.6656C26.387 18.6386 27.0027 16.3394 27.0024 13.999C27.0019 11.6586 26.3853 9.35955 25.2146 7.33301L13.6694 7.33301L13.668 7.3339C14.8384 7.3333 15.9883 7.64094 17.0021 8.22579C18.0159 8.81068 18.8578 9.65216 19.4432 10.6657C20.0285 11.6792 20.3367 12.829 20.3367 13.9994C20.3366 15.1698 20.0283 16.3195 19.4429 17.3331Z" fill="url(#paint1_linear_10344_58316)"/>
<path d="M13.6664 19.2779C16.5813 19.2779 18.9442 16.9149 18.9442 14.0001C18.9442 11.0853 16.5813 8.72229 13.6664 8.72229C10.7516 8.72229 8.38867 11.0853 8.38867 14.0001C8.38867 16.9149 10.7516 19.2779 13.6664 19.2779Z" fill="#1A73E8"/>
<path d="M13.6691 7.33342L25.2143 7.33342C24.0443 5.30641 22.3614 3.62314 20.3346 2.45287C18.3078 1.2826 16.0086 0.666582 13.6682 0.666748C11.3278 0.666914 9.02868 1.28326 7.00206 2.45382C4.97539 3.62437 3.29268 5.30789 2.12305 7.33502L7.8956 17.3334L7.89708 17.3342C7.31139 16.3209 7.00282 15.1713 7.00244 14.0008C7.00206 12.8304 7.30991 11.6805 7.89497 10.6669C8.47998 9.6532 9.32168 8.81143 10.3353 8.22628C11.3489 7.6411 12.4987 7.33316 13.6691 7.33342Z" fill="url(#paint2_linear_10344_58316)"/>
</g>
<defs>
<linearGradient id="paint0_linear_10344_58316" x1="15.1102" y1="26.499" x2="3.56456" y2="6.50144" gradientUnits="userSpaceOnUse">
<stop stop-color="#1E8E3E"/>
<stop offset="1" stop-color="#34A853"/>
</linearGradient>
<linearGradient id="paint1_linear_10344_58316" x1="11.725" y1="27.3668" x2="23.2706" y2="7.3692" gradientUnits="userSpaceOnUse">
<stop stop-color="#FCC934"/>
<stop offset="1" stop-color="#FBBC04"/>
</linearGradient>
<linearGradient id="paint2_linear_10344_58316" x1="2.12305" y1="9.00046" x2="25.2143" y2="9.00046" gradientUnits="userSpaceOnUse">
<stop stop-color="#D93025"/>
<stop offset="1" stop-color="#EA4335"/>
</linearGradient>
<clipPath id="clip0_10344_58316">
<rect width="26.6667" height="26.6667" fill="white" transform="translate(0.333984 0.666626)"/>
</clipPath>
</defs>
</svg>
