<svg width="20" height="20" viewBox="0 0 20 20" fill="inherit" xmlns="http://www.w3.org/2000/svg">
<path d="M10.6361 2.20703L15.6361 6.20703C16.0423 6.58203 16.1361 7.20703 15.7923 7.61328C15.4173 8.05078 14.7923 8.11328 14.3861 7.76953L10.0111 4.26953L5.63606 7.76953C5.19856 8.11328 4.57356 8.05078 4.22981 7.61328C3.88606 7.20703 3.94856 6.55078 4.38606 6.20703L9.38606 2.20703C9.72981 1.92578 10.2611 1.92578 10.6361 2.20703ZM15.6361 13.7695L10.6361 17.7695C10.2611 18.082 9.72981 18.082 9.38606 17.7695L4.38606 13.7695C3.94856 13.4258 3.85481 12.8008 4.22981 12.3633C4.57356 11.957 5.19856 11.8633 5.63606 12.207L10.0111 15.707L14.3861 12.207C14.7923 11.8633 15.4486 11.957 15.7923 12.3633C16.1361 12.8008 16.0423 13.4258 15.6361 13.7695Z"/>
</svg>
