<svg width="27" height="28" viewBox="0 0 27 28" fill="none" xmlns="http://www.w3.org/2000/svg">
<g clip-path="url(#clip0_10344_58326)">
<path d="M24.0901 5.90015C22.9032 4.32588 21.3776 3.0385 19.6262 2.13318C17.8747 1.22786 15.9422 0.72775 13.9715 0.669812C10.8755 0.607812 8.7368 1.53815 7.5268 2.28615C9.1458 1.34715 11.4888 0.814479 13.5401 0.840812C18.8168 0.907479 24.4841 4.50115 25.3258 10.9785C26.2925 18.4138 21.1135 24.6195 13.8281 24.6385C5.81314 24.6588 0.938136 17.5621 2.21247 11.1878C2.23617 10.8753 2.28217 10.5648 2.35014 10.2588C2.50738 8.62512 2.98215 7.03786 3.7478 5.58615C2.8248 6.06381 1.64947 7.57448 1.06947 8.97381C0.225172 11.1088 -0.0725031 13.4209 0.203469 15.7001C0.223469 15.8728 0.241469 16.0451 0.264136 16.2165C0.609771 18.2067 1.4024 20.0926 2.58236 21.7321C3.76232 23.3716 5.29886 24.7221 7.07629 25.6819C8.85371 26.6417 10.8257 27.1857 12.8438 27.273C14.8619 27.3604 16.8736 26.9887 18.7273 26.1861C20.581 25.3835 22.2284 24.1708 23.5456 22.6393C24.8628 21.1078 25.8154 19.2975 26.3317 17.3446C26.848 15.3917 26.9145 13.3471 26.5262 11.3647C26.1379 9.38241 25.305 7.51399 24.0901 5.90015Z" fill="url(#paint0_radial_10344_58326)"/>
<path opacity="0.67" d="M24.0901 5.90015C22.9032 4.32588 21.3776 3.0385 19.6262 2.13318C17.8747 1.22786 15.9422 0.72775 13.9715 0.669812C10.8755 0.607812 8.7368 1.53815 7.5268 2.28615C9.1458 1.34715 11.4888 0.814479 13.5401 0.840812C18.8168 0.907479 24.4841 4.50115 25.3258 10.9785C26.2925 18.4138 21.1135 24.6195 13.8281 24.6385C5.81314 24.6588 0.938136 17.5621 2.21247 11.1878C2.23617 10.8753 2.28217 10.5648 2.35014 10.2588C2.50738 8.62512 2.98215 7.03786 3.7478 5.58615C2.8248 6.06381 1.64947 7.57448 1.06947 8.97381C0.225172 11.1088 -0.0725031 13.4209 0.203469 15.7001C0.223469 15.8728 0.241469 16.0451 0.264136 16.2165C0.609771 18.2067 1.4024 20.0926 2.58236 21.7321C3.76232 23.3716 5.29886 24.7221 7.07629 25.6819C8.85371 26.6417 10.8257 27.1857 12.8438 27.273C14.8619 27.3604 16.8736 26.9887 18.7273 26.1861C20.581 25.3835 22.2284 24.1708 23.5456 22.6393C24.8628 21.1078 25.8154 19.2975 26.3317 17.3446C26.848 15.3917 26.9145 13.3471 26.5262 11.3647C26.1379 9.38241 25.305 7.51399 24.0901 5.90015Z" fill="url(#paint1_radial_10344_58326)"/>
<path d="M24.0901 5.90015C22.9032 4.32588 21.3776 3.0385 19.6262 2.13318C17.8747 1.22786 15.9422 0.72775 13.9715 0.669812C10.8755 0.607812 8.7368 1.53815 7.5268 2.28615C9.1458 1.34715 11.4888 0.814479 13.5401 0.840812C18.8168 0.907479 24.4841 4.50115 25.3258 10.9785C26.2925 18.4138 21.1135 24.6195 13.8281 24.6385C5.81314 24.6588 0.938136 17.5621 2.21247 11.1878C2.23617 10.8753 2.28217 10.5648 2.35014 10.2588C2.50738 8.62512 2.98215 7.03786 3.7478 5.58615C2.8248 6.06381 1.64947 7.57448 1.06947 8.97381C0.225172 11.1088 -0.0725031 13.4209 0.203469 15.7001C0.223469 15.8728 0.241469 16.0451 0.264136 16.2165C0.609771 18.2067 1.4024 20.0926 2.58236 21.7321C3.76232 23.3716 5.29886 24.7221 7.07629 25.6819C8.85371 26.6417 10.8257 27.1857 12.8438 27.273C14.8619 27.3604 16.8736 26.9887 18.7273 26.1861C20.581 25.3835 22.2284 24.1708 23.5456 22.6393C24.8628 21.1078 25.8154 19.2975 26.3317 17.3446C26.848 15.3917 26.9145 13.3471 26.5262 11.3647C26.1379 9.38241 25.305 7.51399 24.0901 5.90015Z" fill="url(#paint2_radial_10344_58326)"/>
<path d="M24.0901 5.90015C22.9032 4.32588 21.3776 3.0385 19.6262 2.13318C17.8747 1.22786 15.9422 0.72775 13.9715 0.669812C10.8755 0.607812 8.7368 1.53815 7.5268 2.28615C9.1458 1.34715 11.4888 0.814479 13.5401 0.840812C18.8168 0.907479 24.4841 4.50115 25.3258 10.9785C26.2925 18.4138 21.1135 24.6195 13.8281 24.6385C5.81314 24.6588 0.938136 17.5621 2.21247 11.1878C2.23617 10.8753 2.28217 10.5648 2.35014 10.2588C2.50738 8.62512 2.98215 7.03786 3.7478 5.58615C2.8248 6.06381 1.64947 7.57448 1.06947 8.97381C0.225172 11.1088 -0.0725031 13.4209 0.203469 15.7001C0.223469 15.8728 0.241469 16.0451 0.264136 16.2165C0.609771 18.2067 1.4024 20.0926 2.58236 21.7321C3.76232 23.3716 5.29886 24.7221 7.07629 25.6819C8.85371 26.6417 10.8257 27.1857 12.8438 27.273C14.8619 27.3604 16.8736 26.9887 18.7273 26.1861C20.581 25.3835 22.2284 24.1708 23.5456 22.6393C24.8628 21.1078 25.8154 19.2975 26.3317 17.3446C26.848 15.3917 26.9145 13.3471 26.5262 11.3647C26.1379 9.38241 25.305 7.51399 24.0901 5.90015Z" fill="url(#paint3_radial_10344_58326)"/>
<path d="M24.0901 5.90015C22.9032 4.32588 21.3776 3.0385 19.6262 2.13318C17.8747 1.22786 15.9422 0.72775 13.9715 0.669812C10.8755 0.607812 8.7368 1.53815 7.5268 2.28615C9.1458 1.34715 11.4888 0.814479 13.5401 0.840812C18.8168 0.907479 24.4841 4.50115 25.3258 10.9785C26.2925 18.4138 21.1135 24.6195 13.8281 24.6385C5.81314 24.6588 0.938136 17.5621 2.21247 11.1878C2.23617 10.8753 2.28217 10.5648 2.35014 10.2588C2.50738 8.62512 2.98215 7.03786 3.7478 5.58615C2.8248 6.06381 1.64947 7.57448 1.06947 8.97381C0.225172 11.1088 -0.0725031 13.4209 0.203469 15.7001C0.223469 15.8728 0.241469 16.0451 0.264136 16.2165C0.609771 18.2067 1.4024 20.0926 2.58236 21.7321C3.76232 23.3716 5.29886 24.7221 7.07629 25.6819C8.85371 26.6417 10.8257 27.1857 12.8438 27.273C14.8619 27.3604 16.8736 26.9887 18.7273 26.1861C20.581 25.3835 22.2284 24.1708 23.5456 22.6393C24.8628 21.1078 25.8154 19.2975 26.3317 17.3446C26.848 15.3917 26.9145 13.3471 26.5262 11.3647C26.1379 9.38241 25.305 7.51399 24.0901 5.90015Z" fill="url(#paint4_radial_10344_58326)"/>
<path d="M25.6501 10.6092C24.8997 3.83984 18.8627 0.797168 13.5397 0.841168C11.4881 0.857835 9.14541 1.3475 7.52641 2.2865C7.098 2.54053 6.69988 2.84247 6.33974 3.1865C6.38274 3.15084 6.51107 3.04517 6.72374 2.89917L6.74474 2.88484L6.76341 2.87217C7.54905 2.34099 8.41467 1.93901 9.32741 1.6815C10.7572 1.28628 12.2393 1.11282 13.7217 1.16717C16.4731 1.33147 19.0646 2.51495 20.9906 4.4867C22.9165 6.45845 24.0388 9.07702 24.1384 11.8315C24.2607 16.2338 20.6577 19.7438 16.5044 19.9472C13.4837 20.0952 10.6377 18.6335 9.24774 15.7095C8.92257 15.0436 8.70176 14.3316 8.59307 13.5985C7.93441 9.1485 10.9227 5.3535 13.6631 4.41384C12.1847 3.1225 8.48041 3.21017 5.72341 5.2385C3.73807 6.69917 2.45007 8.9215 2.02341 11.5718C1.71644 13.6054 1.9867 15.6843 2.80341 17.5718C3.65172 19.5735 5.03799 21.301 6.80841 22.5627C8.57882 23.8244 10.6642 24.5709 12.8331 24.7195C13.164 24.7448 13.4955 24.7574 13.8277 24.7572C22.6484 24.7572 26.4751 18.0615 25.6501 10.6092Z" fill="url(#paint5_radial_10344_58326)"/>
<path d="M25.6501 10.6092C24.8997 3.83984 18.8627 0.797168 13.5397 0.841168C11.4881 0.857835 9.14541 1.3475 7.52641 2.2865C7.098 2.54053 6.69988 2.84247 6.33974 3.1865C6.38274 3.15084 6.51107 3.04517 6.72374 2.89917L6.74474 2.88484L6.76341 2.87217C7.54905 2.34099 8.41467 1.93901 9.32741 1.6815C10.7572 1.28628 12.2393 1.11282 13.7217 1.16717C16.4731 1.33147 19.0646 2.51495 20.9906 4.4867C22.9165 6.45845 24.0388 9.07702 24.1384 11.8315C24.2607 16.2338 20.6577 19.7438 16.5044 19.9472C13.4837 20.0952 10.6377 18.6335 9.24774 15.7095C8.92257 15.0436 8.70176 14.3316 8.59307 13.5985C7.93441 9.1485 10.9227 5.3535 13.6631 4.41384C12.1847 3.1225 8.48041 3.21017 5.72341 5.2385C3.73807 6.69917 2.45007 8.9215 2.02341 11.5718C1.71644 13.6054 1.9867 15.6843 2.80341 17.5718C3.65172 19.5735 5.03799 21.301 6.80841 22.5627C8.57882 23.8244 10.6642 24.5709 12.8331 24.7195C13.164 24.7448 13.4955 24.7574 13.8277 24.7572C22.6484 24.7572 26.4751 18.0615 25.6501 10.6092Z" fill="url(#paint6_radial_10344_58326)"/>
<path style="mix-blend-mode:multiply" opacity="0.53" d="M25.6501 10.6092C24.8997 3.83984 18.8627 0.797168 13.5397 0.841168C11.4881 0.857835 9.14541 1.3475 7.52641 2.2865C7.098 2.54053 6.69988 2.84247 6.33974 3.1865C6.38274 3.15084 6.51107 3.04517 6.72374 2.89917L6.74474 2.88484L6.76341 2.87217C7.54905 2.34099 8.41467 1.93901 9.32741 1.6815C10.7572 1.28628 12.2393 1.11282 13.7217 1.16717C16.4731 1.33147 19.0646 2.51495 20.9906 4.4867C22.9165 6.45845 24.0388 9.07702 24.1384 11.8315C24.2607 16.2338 20.6577 19.7438 16.5044 19.9472C13.4837 20.0952 10.6377 18.6335 9.24774 15.7095C8.92257 15.0436 8.70176 14.3316 8.59307 13.5985C7.93441 9.1485 10.9227 5.3535 13.6631 4.41384C12.1847 3.1225 8.48041 3.21017 5.72341 5.2385C3.73807 6.69917 2.45007 8.9215 2.02341 11.5718C1.71644 13.6054 1.9867 15.6843 2.80341 17.5718C3.65172 19.5735 5.03799 21.301 6.80841 22.5627C8.57882 23.8244 10.6642 24.5709 12.8331 24.7195C13.164 24.7448 13.4955 24.7574 13.8277 24.7572C22.6484 24.7572 26.4751 18.0615 25.6501 10.6092Z" fill="url(#paint7_radial_10344_58326)"/>
<path style="mix-blend-mode:multiply" opacity="0.53" d="M25.6501 10.6092C24.8997 3.83984 18.8627 0.797168 13.5397 0.841168C11.4881 0.857835 9.14541 1.3475 7.52641 2.2865C7.098 2.54053 6.69988 2.84247 6.33974 3.1865C6.38274 3.15084 6.51107 3.04517 6.72374 2.89917L6.74474 2.88484L6.76341 2.87217C7.54905 2.34099 8.41467 1.93901 9.32741 1.6815C10.7572 1.28628 12.2393 1.11282 13.7217 1.16717C16.4731 1.33147 19.0646 2.51495 20.9906 4.4867C22.9165 6.45845 24.0388 9.07702 24.1384 11.8315C24.2607 16.2338 20.6577 19.7438 16.5044 19.9472C13.4837 20.0952 10.6377 18.6335 9.24774 15.7095C8.92257 15.0436 8.70176 14.3316 8.59307 13.5985C7.93441 9.1485 10.9227 5.3535 13.6631 4.41384C12.1847 3.1225 8.48041 3.21017 5.72341 5.2385C3.73807 6.69917 2.45007 8.9215 2.02341 11.5718C1.71644 13.6054 1.9867 15.6843 2.80341 17.5718C3.65172 19.5735 5.03799 21.301 6.80841 22.5627C8.57882 23.8244 10.6642 24.5709 12.8331 24.7195C13.164 24.7448 13.4955 24.7574 13.8277 24.7572C22.6484 24.7572 26.4751 18.0615 25.6501 10.6092Z" fill="url(#paint8_radial_10344_58326)"/>
<path d="M16.5085 19.9469C22.2085 19.6003 24.6485 14.8803 24.8015 11.5319C25.0402 6.30026 21.9365 0.660263 13.7258 1.16693C12.2433 1.1129 10.7613 1.2867 9.33152 1.68226C8.42287 1.9507 7.55887 2.35192 6.76752 2.87293L6.74885 2.8856L6.72785 2.89993C6.60029 2.98882 6.47552 3.08237 6.35352 3.1806C8.47877 1.99221 10.9344 1.53145 13.3458 1.8686C18.0598 2.48726 22.3698 6.15426 22.3698 10.9929C22.3698 14.7159 19.4928 17.5596 16.1238 17.3553C11.1188 17.0553 9.85718 11.9219 12.4608 9.70393C11.7588 9.55293 10.4395 9.84893 9.52085 11.2223C8.69652 12.4556 8.74318 14.3589 9.25185 15.7093C9.88587 17.0706 10.9205 18.2059 12.2173 18.9632C13.5142 19.7205 15.0113 20.0637 16.5085 19.9469Z" fill="url(#paint9_radial_10344_58326)"/>
<path d="M24.1178 6.90882C23.775 5.89829 23.2201 4.97272 22.4904 4.19416C21.6233 3.29058 20.5953 2.55659 19.4591 2.02982C18.5105 1.56226 17.5103 1.20772 16.4791 0.973491C14.6612 0.575569 12.78 0.564212 10.9574 0.940157C9.06308 1.34016 7.39742 2.15982 6.34375 3.18449C7.1839 2.70985 8.0844 2.35104 9.02075 2.11782C10.8402 1.6606 12.7455 1.66824 14.5613 2.14005C16.377 2.61186 18.045 3.53269 19.4118 4.81782C19.9657 5.34315 20.4506 5.9368 20.8548 6.58449C22.4864 9.23749 22.3321 12.5728 21.0598 14.5398C20.1148 16.0012 18.0908 17.3732 16.2024 17.3572C17.6236 17.4644 19.0473 17.184 20.3218 16.5459C21.5962 15.9077 22.6736 14.9357 23.4391 13.7335C24.7688 11.6588 24.8141 9.01849 24.1178 6.90882Z" fill="url(#paint10_linear_10344_58326)"/>
<path d="M24.1178 6.90882C23.775 5.89829 23.2201 4.97272 22.4904 4.19416C21.6233 3.29058 20.5953 2.55659 19.4591 2.02982C18.5105 1.56226 17.5103 1.20772 16.4791 0.973491C14.6612 0.575569 12.78 0.564212 10.9574 0.940157C9.06308 1.34016 7.39742 2.15982 6.34375 3.18449C7.1839 2.70985 8.0844 2.35104 9.02075 2.11782C10.8402 1.6606 12.7455 1.66824 14.5613 2.14005C16.377 2.61186 18.045 3.53269 19.4118 4.81782C19.9657 5.34315 20.4506 5.9368 20.8548 6.58449C22.4864 9.23749 22.3321 12.5728 21.0598 14.5398C20.1148 16.0012 18.0908 17.3732 16.2024 17.3572C17.6236 17.4644 19.0473 17.184 20.3218 16.5459C21.5962 15.9077 22.6736 14.9357 23.4391 13.7335C24.7688 11.6588 24.8141 9.01849 24.1178 6.90882Z" fill="url(#paint11_linear_10344_58326)"/>
<path d="M24.09 5.9004C23.7329 5.4328 23.3452 4.98938 22.9294 4.57306C22.5992 4.22399 22.2454 3.8981 21.8704 3.59773C22.0862 3.78563 22.2919 3.9848 22.4867 4.19439C23.2164 4.97301 23.7712 5.89857 24.114 6.90906C24.8104 9.01873 24.765 11.6591 23.4354 13.7327C22.6971 14.8947 21.6661 15.842 20.4459 16.4795C19.2257 17.1169 17.8592 17.4221 16.4837 17.3644C16.3634 17.3644 16.242 17.3644 16.12 17.3554C11.115 17.0554 9.85338 11.9221 12.4574 9.70406C11.755 9.55306 10.4357 9.84906 9.51705 11.2224C8.69271 12.4557 8.73938 14.3591 9.24804 15.7094C8.92298 15.0434 8.70229 14.3315 8.59371 13.5984C7.93471 9.1484 10.923 5.3534 13.6634 4.41373C12.185 3.12239 8.48071 3.21006 5.72371 5.2384C4.10217 6.45051 2.92141 8.15956 2.36138 10.1051C2.53986 8.52634 3.00994 6.99449 3.74771 5.5874C2.82471 6.06506 1.64938 7.57573 1.06938 8.97506C0.225246 11.1098 -0.0724266 13.4215 0.203377 15.7004C0.223377 15.8731 0.241377 16.0454 0.264043 16.2167C0.609678 18.2069 1.40231 20.0928 2.58227 21.7324C3.76223 23.3719 5.29876 24.7224 7.07619 25.6822C8.85362 26.6419 10.8256 27.186 12.8437 27.2733C14.8619 27.3606 16.8735 26.989 18.7272 26.1864C20.5809 25.3837 22.2283 24.171 23.5455 22.6396C24.8627 21.1081 25.8153 19.2977 26.3316 17.3448C26.8479 15.3919 26.9144 13.3473 26.5261 11.365C26.1378 9.38266 25.3049 7.51424 24.09 5.9004Z" fill="url(#paint12_linear_10344_58326)"/>
</g>
<defs>
<radialGradient id="paint0_radial_10344_58326" cx="0" cy="0" r="1" gradientUnits="userSpaceOnUse" gradientTransform="translate(2048.49 320.091) scale(1920.36 1916.54)">
<stop stop-color="#FFF36E"/>
<stop offset="0.5" stop-color="#FC4055"/>
<stop offset="1" stop-color="#E31587"/>
</radialGradient>
<radialGradient id="paint1_radial_10344_58326" cx="0" cy="0" r="1" gradientUnits="userSpaceOnUse" gradientTransform="translate(213.477 383.976) scale(1493.61 1490.65)">
<stop stop-color="#C60084"/>
<stop offset="1" stop-color="#FC4055" stop-opacity="0"/>
</radialGradient>
<radialGradient id="paint2_radial_10344_58326" cx="0" cy="0" r="1" gradientUnits="userSpaceOnUse" gradientTransform="translate(2347.21 171.026) scale(2837.87 2832.23)">
<stop stop-color="#FFDE67" stop-opacity="0.6"/>
<stop offset="0.66" stop-color="#FC4055" stop-opacity="0"/>
</radialGradient>
<radialGradient id="paint3_radial_10344_58326" cx="0" cy="0" r="1" gradientUnits="userSpaceOnUse" gradientTransform="translate(938.947 1086.71) scale(3734.04 3726.61)">
<stop offset="0.15" stop-color="#810220"/>
<stop offset="0.27" stop-color="#FC4055" stop-opacity="0"/>
</radialGradient>
<radialGradient id="paint4_radial_10344_58326" cx="0" cy="0" r="1" gradientUnits="userSpaceOnUse" gradientTransform="translate(1130.98 1171.89) scale(3413.98 3407.19)">
<stop offset="0.12" stop-color="#810220"/>
<stop offset="0.3" stop-color="#FC4055" stop-opacity="0"/>
</radialGradient>
<radialGradient id="paint5_radial_10344_58326" cx="0" cy="0" r="1" gradientUnits="userSpaceOnUse" gradientTransform="translate(1719.76 211.306) scale(2118.7 2123.78)">
<stop stop-color="#FF9640"/>
<stop offset="0.8" stop-color="#FC4055"/>
</radialGradient>
<radialGradient id="paint6_radial_10344_58326" cx="0" cy="0" r="1" gradientUnits="userSpaceOnUse" gradientTransform="translate(1738.85 345.238) scale(2156.87 2162.05)">
<stop offset="0.09" stop-color="#FFDE67"/>
<stop offset="0.82" stop-color="#FF9640" stop-opacity="0"/>
</radialGradient>
<radialGradient id="paint7_radial_10344_58326" cx="0" cy="0" r="1" gradientUnits="userSpaceOnUse" gradientTransform="translate(1204.4 938.367) scale(1030.72 1033.19)">
<stop offset="0.36" stop-color="#FC4055"/>
<stop offset="0.59" stop-color="#FF9640" stop-opacity="0"/>
</radialGradient>
<radialGradient id="paint8_radial_10344_58326" cx="0" cy="0" r="1" gradientUnits="userSpaceOnUse" gradientTransform="translate(1013.53 995.766) scale(1030.72 1033.19)">
<stop offset="0.22" stop-color="#FC4055" stop-opacity="0.8"/>
<stop offset="0.47" stop-color="#FF9640" stop-opacity="0"/>
</radialGradient>
<radialGradient id="paint9_radial_10344_58326" cx="0" cy="0" r="1" gradientUnits="userSpaceOnUse" gradientTransform="translate(1616.13 31.2697) scale(2510.66 2561.44)">
<stop offset="0.05" stop-color="#FFF36E"/>
<stop offset="0.55" stop-color="#FF9640"/>
<stop offset="0.7" stop-color="#FF9640"/>
</radialGradient>
<linearGradient id="paint10_linear_10344_58326" x1="735.107" y1="-39.4451" x2="1097.18" y2="1076.6" gradientUnits="userSpaceOnUse">
<stop stop-color="#B833E1"/>
<stop offset="0.37" stop-color="#9059FF"/>
<stop offset="1" stop-color="#0090ED"/>
</linearGradient>
<linearGradient id="paint11_linear_10344_58326" x1="1245.24" y1="682.562" x2="547.619" y2="-192.71" gradientUnits="userSpaceOnUse">
<stop stop-color="#592ACB" stop-opacity="0.5"/>
<stop offset="0.24" stop-color="#722291" stop-opacity="0"/>
</linearGradient>
<linearGradient id="paint12_linear_10344_58326" x1="1600.4" y1="174.401" x2="635.177" y2="1982.65" gradientUnits="userSpaceOnUse">
<stop stop-color="#FFF36E" stop-opacity="0.8"/>
<stop offset="0.09" stop-color="#FFF36E" stop-opacity="0.7"/>
<stop offset="0.75" stop-color="#FFF36E" stop-opacity="0"/>
</linearGradient>
<clipPath id="clip0_10344_58326">
<rect width="26.6667" height="26.6667" fill="white" transform="translate(0.111328 0.666748)"/>
</clipPath>
</defs>
</svg>
