<svg width="54" height="54" viewBox="0 0 54 54" fill="none" xmlns="http://www.w3.org/2000/svg">
<path d="M26.999 1.00024C33.303 1.00024 37.964 1.00093 41.54 1.48169C45.097 1.95991 47.481 2.9021 49.2891 4.71021C51.0969 6.51824 52.0384 8.90164 52.5166 12.4583C52.9974 16.0344 52.999 20.696 52.999 27.0002C52.999 33.3042 52.9974 37.9652 52.5166 41.5413C52.0384 45.0982 51.0972 47.4822 49.2891 49.2903C47.481 51.0984 45.097 52.0396 41.54 52.5178C37.964 52.9986 33.303 53.0002 26.999 53.0002C20.6948 53.0002 16.0331 52.9986 12.457 52.5178C8.90042 52.0396 6.51702 51.0981 4.70898 49.2903C2.90088 47.4822 1.95869 45.0982 1.48047 41.5413C0.999706 37.9652 0.999023 33.3042 0.999023 27.0002C0.999023 20.696 0.999674 16.0344 1.48047 12.4583C1.95869 8.90141 2.9009 6.51829 4.70898 4.71021C6.51707 2.90212 8.90019 1.95991 12.457 1.48169C16.0331 1.00089 20.6948 1.00024 26.999 1.00024Z" fill="#171717"/>
<path d="M26.999 1.00024C33.303 1.00024 37.964 1.00093 41.54 1.48169C45.097 1.95991 47.481 2.9021 49.2891 4.71021C51.0969 6.51824 52.0384 8.90164 52.5166 12.4583C52.9974 16.0344 52.999 20.696 52.999 27.0002C52.999 33.3042 52.9974 37.9652 52.5166 41.5413C52.0384 45.0982 51.0972 47.4822 49.2891 49.2903C47.481 51.0984 45.097 52.0396 41.54 52.5178C37.964 52.9986 33.303 53.0002 26.999 53.0002C20.6948 53.0002 16.0331 52.9986 12.457 52.5178C8.90042 52.0396 6.51702 51.0981 4.70898 49.2903C2.90088 47.4822 1.95869 45.0982 1.48047 41.5413C0.999706 37.9652 0.999023 33.3042 0.999023 27.0002C0.999023 20.696 0.999674 16.0344 1.48047 12.4583C1.95869 8.90141 2.9009 6.51829 4.70898 4.71021C6.51707 2.90212 8.90019 1.95991 12.457 1.48169C16.0331 1.00089 20.6948 1.00024 26.999 1.00024Z" stroke="#262626" stroke-width="1.33333"/>
<path d="M12.332 32.7223V39.75H23.3656V38.1915H13.9396V32.7223H12.332ZM40.0578 32.7223V38.1915H30.6318V39.7496H41.6654V32.7223H40.0578ZM23.3816 22.0277V32.7219H30.6318V31.3165H24.9892V22.0277H23.3816ZM12.332 15V22.0277H13.9396V16.5582H23.3656V15H12.332ZM30.6318 15V16.5582H40.0578V22.0277H41.6654V15H30.6318Z" fill="#FAFAFA" stroke="#FAFAFA" stroke-width="0.666667"/>
</svg>
