<svg width="54" height="54" viewBox="0 0 54 54" fill="none" xmlns="http://www.w3.org/2000/svg">
<path d="M26.999 1.00024C33.303 1.00024 37.964 1.00093 41.54 1.48169C45.097 1.95991 47.481 2.9021 49.2891 4.71021C51.0969 6.51824 52.0384 8.90164 52.5166 12.4583C52.9974 16.0344 52.999 20.696 52.999 27.0002C52.999 33.3042 52.9974 37.9652 52.5166 41.5413C52.0384 45.0982 51.0972 47.4822 49.2891 49.2903C47.481 51.0984 45.097 52.0396 41.54 52.5178C37.964 52.9986 33.303 53.0002 26.999 53.0002C20.6948 53.0002 16.0331 52.9986 12.457 52.5178C8.90042 52.0396 6.51702 51.0981 4.70898 49.2903C2.90088 47.4822 1.95869 45.0982 1.48047 41.5413C0.999706 37.9652 0.999023 33.3042 0.999023 27.0002C0.999023 20.696 0.999674 16.0344 1.48047 12.4583C1.95869 8.90141 2.9009 6.51829 4.70898 4.71021C6.51707 2.90212 8.90019 1.95991 12.457 1.48169C16.0331 1.00089 20.6948 1.00024 26.999 1.00024Z" fill="#171717"/>
<path d="M26.999 1.00024C33.303 1.00024 37.964 1.00093 41.54 1.48169C45.097 1.95991 47.481 2.9021 49.2891 4.71021C51.0969 6.51824 52.0384 8.90164 52.5166 12.4583C52.9974 16.0344 52.999 20.696 52.999 27.0002C52.999 33.3042 52.9974 37.9652 52.5166 41.5413C52.0384 45.0982 51.0972 47.4822 49.2891 49.2903C47.481 51.0984 45.097 52.0396 41.54 52.5178C37.964 52.9986 33.303 53.0002 26.999 53.0002C20.6948 53.0002 16.0331 52.9986 12.457 52.5178C8.90042 52.0396 6.51702 51.0981 4.70898 49.2903C2.90088 47.4822 1.95869 45.0982 1.48047 41.5413C0.999706 37.9652 0.999023 33.3042 0.999023 27.0002C0.999023 20.696 0.999674 16.0344 1.48047 12.4583C1.95869 8.90141 2.9009 6.51829 4.70898 4.71021C6.51707 2.90212 8.90019 1.95991 12.457 1.48169C16.0331 1.00089 20.6948 1.00024 26.999 1.00024Z" stroke="#404040" stroke-width="1.33333"/>
<g clip-path="url(#clip0_10810_17741)">
<path d="M41.3416 12.3928L29.4688 21.211L31.6643 16.0084L41.3416 12.3928Z" fill="#E2761B" stroke="#E2761B" stroke-width="0.119326" stroke-linecap="round" stroke-linejoin="round"/>
<path d="M13.9326 12.3928L25.71 21.2945L23.6218 16.0084L13.9326 12.3928ZM37.0698 32.8333L33.9077 37.6779L40.6735 39.5394L42.6185 32.9407L37.0698 32.8333ZM12.6797 32.9407L14.6128 39.5394L21.3785 37.6779L18.2164 32.8333L12.6797 32.9407Z" fill="#E4761B" stroke="#E4761B" stroke-width="0.119326" stroke-linecap="round" stroke-linejoin="round"/>
<path d="M20.9967 24.6478L19.1113 27.4996L25.8294 27.798L25.5907 20.5788L20.9967 24.6478ZM34.2776 24.6478L29.6239 20.4952L29.4688 27.798L36.1749 27.4996L34.2776 24.6478ZM21.3785 37.6781L25.4117 35.7092L21.9274 32.9886L21.3785 37.6781ZM29.8626 35.7092L33.9077 37.6781L33.3469 32.9886L29.8626 35.7092Z" fill="#E4761B" stroke="#E4761B" stroke-width="0.119326" stroke-linecap="round" stroke-linejoin="round"/>
<path d="M33.9061 37.6788L29.861 35.71L30.1832 38.3471L30.1474 39.4568L33.9061 37.6788ZM21.377 37.6788L25.1357 39.4568L25.1118 38.3471L25.4102 35.71L21.377 37.6788Z" fill="#D7C1B3" stroke="#D7C1B3" stroke-width="0.119326" stroke-linecap="round" stroke-linejoin="round"/>
<path d="M25.197 31.2467L21.832 30.2563L24.2066 29.1704L25.197 31.2467ZM30.0774 31.2467L31.0678 29.1704L33.4543 30.2563L30.0774 31.2467Z" fill="#233447" stroke="#233447" stroke-width="0.119326" stroke-linecap="round" stroke-linejoin="round"/>
<path d="M21.377 37.6781L21.9497 32.8335L18.2148 32.9409L21.377 37.6781ZM33.3334 32.8335L33.9062 37.6781L37.0683 32.9409L33.3334 32.8335ZM36.1733 27.4996L29.4672 27.7979L30.0877 31.2465L31.0781 29.1702L33.4647 30.2561L36.1733 27.4996ZM21.8304 30.2561L24.2169 29.1702L25.1954 31.2465L25.8278 27.7979L19.1098 27.4996L21.8304 30.2561Z" fill="#CD6116" stroke="#CD6116" stroke-width="0.119326" stroke-linecap="round" stroke-linejoin="round"/>
<path d="M19.1113 27.4996L21.9274 32.9886L21.8319 30.2561L19.1113 27.4996ZM33.4662 30.2561L33.3469 32.9886L36.1749 27.4996L33.4662 30.2561ZM25.8294 27.7979L25.1969 31.2465L25.9845 35.3155L26.1635 29.9577L25.8294 27.7979ZM29.4688 27.7979L29.1466 29.9458L29.2898 35.3155L30.0893 31.2465L29.4688 27.7979Z" fill="#E4751F" stroke="#E4751F" stroke-width="0.119326" stroke-linecap="round" stroke-linejoin="round"/>
<path d="M30.0894 31.2464L29.2899 35.3154L29.8626 35.7092L33.3469 32.9885L33.4663 30.256L30.0894 31.2464ZM21.832 30.256L21.9275 32.9885L25.4118 35.7092L25.9846 35.3154L25.197 31.2464L21.832 30.256Z" fill="#F6851B" stroke="#F6851B" stroke-width="0.119326" stroke-linecap="round" stroke-linejoin="round"/>
<path d="M30.1474 39.4559L30.1832 38.3462L29.8849 38.0837H25.3863L25.1118 38.3462L25.1357 39.4559L21.377 37.678L22.6895 38.7519L25.3505 40.6015H29.9207L32.5936 38.7519L33.9061 37.678L30.1474 39.4559Z" fill="#C0AD9E" stroke="#C0AD9E" stroke-width="0.119326" stroke-linecap="round" stroke-linejoin="round"/>
<path d="M29.8624 35.7092L29.2897 35.3154H25.9844L25.4116 35.7092L25.1133 38.3463L25.3877 38.0838H29.8863L30.1846 38.3463L29.8624 35.7092Z" fill="#161616" stroke="#161616" stroke-width="0.119326" stroke-linecap="round" stroke-linejoin="round"/>
<path d="M41.8434 21.7837L42.8577 16.9153L41.3423 12.3928L29.8632 20.9127L34.2782 24.6476L40.5189 26.4732L41.9031 24.8623L41.3065 24.4328L42.2611 23.5617L41.5213 22.9889L42.4759 22.261L41.8434 21.7837ZM12.4297 16.9153L13.444 21.7837L12.7996 22.261L13.7542 22.9889L13.0263 23.5617L13.9809 24.4328L13.3843 24.8623L14.7565 26.4732L20.9973 24.6476L25.4123 20.9127L13.9332 12.3928L12.4297 16.9153Z" fill="#763D16" stroke="#763D16" stroke-width="0.119326" stroke-linecap="round" stroke-linejoin="round"/>
<path d="M40.5183 26.4739L34.2776 24.6482L36.1749 27.5001L33.3469 32.9891L37.0698 32.9413H42.6185L40.5183 26.4739ZM20.9967 24.6482L14.756 26.4739L12.6797 32.9413H18.2164L21.9274 32.9891L19.1113 27.5001L20.9967 24.6482ZM29.4688 27.7984L29.8626 20.9133L31.6763 16.009H23.6218L25.4117 20.9133L25.8294 27.7984L25.9726 29.9701L25.9845 35.3159H29.2898L29.3137 29.9701L29.4688 27.7984Z" fill="#F6851B" stroke="#F6851B" stroke-width="0.119326" stroke-linecap="round" stroke-linejoin="round"/>
</g>
<defs>
<clipPath id="clip0_10810_17741">
<rect width="30.6667" height="28.3995" fill="white" transform="translate(12.332 12.3333)"/>
</clipPath>
</defs>
</svg>
