<svg width="490" height="80" viewBox="0 0 490 80" fill="none" xmlns="http://www.w3.org/2000/svg">
<path d="M33.9667 63.3808L53.1468 17.4946H67.43V77.3215H57.9898V26.6718L36.8258 77.6411H30.0528L9.07458 26.9914V77.3456H0V17.4705H14.9185L33.9667 63.3808Z" fill="#171717"/>
<path d="M118.744 68.3144C117.124 71.5772 114.633 74.3212 111.548 76.2384C108.464 78.1556 104.91 79.17 101.285 79.1679C88.2721 79.1679 79.3773 69.2671 79.3773 55.652V25.4129H89.0932V53.837C89.0932 63.7318 94.6974 70.2258 103.592 70.2258C112.793 70.2258 118.72 63.5207 118.72 53.837V25.4129H128.352V77.9981H118.744V68.3144Z" fill="#171717"/>
<path d="M199.351 78.5588H186.968C174.8 78.5588 168.663 72.704 168.663 60.9943V34.6986H157.173V25.9736H168.663V12.7083H178.295V25.9736H199.351V34.6986H178.295V58.7572C178.295 66.421 180.728 69.6107 189.084 69.6107H199.345L199.351 78.5588Z" fill="#171717"/>
<path d="M254.607 78.9568H246.911L222.258 25.4129H233.047L251.028 65.9688L268.914 25.4129H278.858L254.607 78.9568Z" fill="#171717"/>
<path d="M332.65 52.5483H289.153C289.686 62.3405 296.669 70.0345 306.937 70.0345C317.408 70.0345 321.639 64.3906 322.49 62.6903H332.003C331.157 67.2668 324.486 78.9705 306.925 78.9705C290.741 78.9705 279.407 66.8327 279.407 51.3966C279.407 35.5384 290.729 23.8287 305.972 23.8287C321.328 23.8046 332.65 35.3033 332.65 52.5483ZM289.788 44.4564H321.963C319.523 36.473 313.919 32.1075 305.984 32.1075C297.514 32.1075 291.802 36.7926 289.788 44.4564Z" fill="#171717"/>
<path d="M350.952 78.4262H341.32V25.841H350.952V35.5247C352.432 31.6898 356.874 25.4129 369.149 25.4129H374.795V35.0966H368.939C355.501 35.0966 350.958 39.3597 350.958 48.7238L350.952 78.4262Z" fill="#171717"/>
<path d="M396.601 54.8395C386.549 53.6336 379.458 48.846 379.458 39.1623C379.458 29.9006 388.137 23.8287 400.94 23.8287C418.616 23.8287 424.316 32.9878 426.018 38.3H415.757C414.594 36.9132 410.674 32.1256 400.94 32.1256C393.004 32.1256 388.953 34.9957 388.953 38.8306C388.953 42.557 391.602 44.8965 397.841 45.6442C401.971 46.1748 404.506 46.3859 409.062 46.9225C421.439 48.5144 426.731 53.8386 426.731 63.5284C426.731 72.3619 418.688 79.3865 403.871 79.3865C385.464 79.3865 379.003 67.9964 377.84 63.2088H388.107C388.635 64.9092 392.866 70.8726 403.871 70.8726C412.76 70.8726 417.099 67.6768 417.099 63.5284C417.099 59.3799 414.876 56.8957 407.791 56.0756L396.601 54.8395Z" fill="#171717"/>
<path d="M206.385 0.000183105H216.436V15.2252H206.385V0.000183105ZM206.594 25.325H216.22V77.9162H206.594V25.325Z" fill="#171717"/>
<path d="M141.29 9.5274H150.922V78.2663H141.29V9.5274Z" fill="#171717"/>
<path d="M465.614 32.7088L488.989 20.2273L485.063 12.7083L463.648 21.3368C463.098 21.5601 462.483 21.5601 461.933 21.3368L440.518 12.7083L436.58 20.2514L459.956 32.733L436.58 45.2145L440.518 52.7577L461.933 44.0628C462.483 43.8395 463.098 43.8395 463.648 44.0628L485.063 52.7155L489.001 45.1723L465.614 32.7088Z" fill="#23F7DD"/>
</svg>
