<svg width="54" height="54" viewBox="0 0 54 54" fill="none" xmlns="http://www.w3.org/2000/svg">
<path d="M27.333 1.00024C33.637 1.00024 38.298 1.00093 41.874 1.48169C45.431 1.95991 47.8149 2.9021 49.623 4.71021C51.4309 6.51824 52.3724 8.90164 52.8506 12.4583C53.3314 16.0344 53.333 20.696 53.333 27.0002C53.333 33.3042 53.3314 37.9652 52.8506 41.5413C52.3724 45.0982 51.4312 47.4822 49.623 49.2903C47.8149 51.0984 45.431 52.0396 41.874 52.5178C38.298 52.9986 33.637 53.0002 27.333 53.0002C21.0288 53.0002 16.3671 52.9986 12.791 52.5178C9.23441 52.0396 6.85101 51.0981 5.04297 49.2903C3.23486 47.4822 2.29267 45.0982 1.81445 41.5413C1.33369 37.9652 1.33301 33.3042 1.33301 27.0002C1.33301 20.696 1.33366 16.0344 1.81445 12.4583C2.29268 8.90141 3.23488 6.51829 5.04297 4.71021C6.85105 2.90212 9.23417 1.95991 12.791 1.48169C16.3671 1.00089 21.0288 1.00024 27.333 1.00024Z" fill="white"/>
<path d="M27.333 1.00024C33.637 1.00024 38.298 1.00093 41.874 1.48169C45.431 1.95991 47.8149 2.9021 49.623 4.71021C51.4309 6.51824 52.3724 8.90164 52.8506 12.4583C53.3314 16.0344 53.333 20.696 53.333 27.0002C53.333 33.3042 53.3314 37.9652 52.8506 41.5413C52.3724 45.0982 51.4312 47.4822 49.623 49.2903C47.8149 51.0984 45.431 52.0396 41.874 52.5178C38.298 52.9986 33.637 53.0002 27.333 53.0002C21.0288 53.0002 16.3671 52.9986 12.791 52.5178C9.23441 52.0396 6.85101 51.0981 5.04297 49.2903C3.23486 47.4822 2.29267 45.0982 1.81445 41.5413C1.33369 37.9652 1.33301 33.3042 1.33301 27.0002C1.33301 20.696 1.33366 16.0344 1.81445 12.4583C2.29268 8.90141 3.23488 6.51829 5.04297 4.71021C6.85105 2.90212 9.23417 1.95991 12.791 1.48169C16.3671 1.00089 21.0288 1.00024 27.333 1.00024Z" stroke="#E5E5E5" stroke-width="1.33333"/>
<path d="M16.5 27.3333V29.4166C16.5 30.1458 15.9271 30.6666 15.25 30.6666C14.5208 30.6666 14 30.1458 14 29.4166V27.3333C14 19.9895 19.9375 13.9999 27.3333 13.9999C31.3438 13.9999 34.9896 15.8228 37.4375 18.6874C37.8542 19.2083 37.8021 19.9895 37.2813 20.4583C36.7604 20.8749 35.9792 20.8228 35.5104 20.302C33.5313 18.0103 30.6146 16.4999 27.3333 16.4999C21.3438 16.4999 16.5 21.3958 16.5 27.3333ZM40.3542 24.6249C40.5625 25.5103 40.6667 26.3958 40.6667 27.3333V29.4687C40.6667 30.1458 40.0938 30.7187 39.4167 30.7187C38.6875 30.7187 38.1667 30.1458 38.1667 29.4687V27.3853C38.1667 26.6041 38.0625 25.8228 37.9063 25.0937C37.75 24.4687 38.2188 23.7916 38.8958 23.6353C39.5729 23.4791 40.1979 23.9478 40.3542 24.6249ZM27.3333 18.1666C32.3854 18.1666 36.5 22.2812 36.5 27.3333V28.6353C36.5 30.0937 36.3958 31.552 36.2396 32.9583C36.1354 33.5833 35.6146 33.9999 34.9896 33.9999C34.2604 33.9999 33.6354 33.3228 33.7396 32.5937C33.8958 31.2916 34 29.9895 34 28.6353V27.3333C34 23.6874 30.9792 20.6666 27.3333 20.6666C26.7083 20.6666 26.1354 20.7708 25.5625 20.927C25.0417 21.0833 24.4167 20.927 24.0521 20.5103C23.4792 19.8853 23.6875 18.8958 24.4688 18.6353C25.3542 18.3228 26.3438 18.1666 27.3333 18.1666ZM21.8125 21.7603C22.2292 22.2812 22.2292 23.0103 21.8125 23.5312C21.0833 24.6249 20.6667 25.927 20.6667 27.3333V28.6353C20.6667 30.1458 20.4583 31.6562 20.1458 33.1145C20.0417 33.6353 19.5208 33.9999 19 33.9999C18.1667 33.9999 17.5417 33.2187 17.75 32.3853C18.0104 31.1874 18.1667 29.9374 18.1667 28.6353V27.3333C18.1667 25.2499 18.8438 23.2708 20.0417 21.7603C20.5104 21.1874 21.3438 21.2395 21.8125 21.7603ZM32.3333 27.3333V28.6353C32.3333 30.7187 32.125 32.802 31.7083 34.7812C31.6042 35.302 31.1354 35.6666 30.6146 35.6666C29.8854 35.6666 29.3125 34.9895 29.4688 34.2603C29.8333 32.4374 30.0417 30.5624 30.0417 28.6353V27.3333C30.0417 25.8749 28.7917 24.6249 27.3333 24.6249C25.8229 24.6249 24.625 25.8749 24.625 27.3333V28.6353C24.625 30.7708 24.3125 32.8541 23.7917 34.8853C23.6354 35.3541 23.2188 35.6666 22.6979 35.6666C21.9167 35.6666 21.3958 34.9374 21.6042 34.1562C22.0729 32.3853 22.3333 30.5103 22.3333 28.6353V27.3333C22.3333 24.5728 24.5729 22.3333 27.3333 22.3333C30.0938 22.3333 32.3333 24.5728 32.3333 27.3333ZM27.3333 26.0833C28.0104 26.0833 28.5833 26.6562 28.5833 27.3333V28.6353C28.5833 32.0728 27.9063 35.4583 26.7083 38.6874L26.3958 39.4687C26.1354 40.0937 25.4063 40.4583 24.7813 40.1978C24.1563 39.9374 23.7917 39.2083 24.0521 38.5833L24.3646 37.802C25.5104 34.8853 26.0833 31.7603 26.0833 28.6353V27.3333C26.0833 26.6562 26.6042 26.0833 27.3333 26.0833Z" fill="#171717"/>
</svg>
