<svg width="20" height="20" viewBox="0 0 20 20" fill="inherit" xmlns="http://www.w3.org/2000/svg">
<path d="M3 2.75C3 2.34375 3.3125 2 3.75 2C4.15625 2 4.5 2.34375 4.5 2.75V17.25C4.5 17.6875 4.15625 18 3.75 18C3.3125 18 3 17.6875 3 17.25V2.75ZM16.25 2C16.6562 2 17 2.34375 17 2.75V17.25C17 17.6875 16.6562 18 16.25 18C15.8125 18 15.5 17.6875 15.5 17.25V2.75C15.5 2.34375 15.8125 2 16.25 2Z"/>
<path d="M13 10C13 11.6569 11.6569 13 10 13C8.34315 13 7 11.6569 7 10C7 8.34315 8.34315 7 10 7C11.6569 7 13 8.34315 13 10Z"/>
</svg>
