<svg width="34" height="34" viewBox="0 0 34 34" fill="none" xmlns="http://www.w3.org/2000/svg">
<path d="M27.7468 17.235C27.7468 17.1833 27.7468 17.1317 27.7468 17.08C27.7468 11.19 22.8901 6.33333 17.0001 6.33333C11.0584 6.33333 6.25344 11.19 6.25344 17.08C6.25344 23.0217 11.0584 27.8267 17.0001 27.8267C17.1034 27.8267 17.2584 27.8267 17.4134 27.8267C17.4651 27.8267 17.4651 27.8267 17.5168 27.8267C17.5168 27.8267 17.5684 27.775 17.6201 27.7233C17.7234 27.62 17.8268 27.4133 17.8268 27.1033C17.8268 27.0517 17.7751 26.845 17.5168 26.225C17.4651 26.1733 17.4651 26.07 17.4134 26.0183C17.2068 25.5017 16.8451 24.7267 16.6901 23.9C16.5868 23.59 16.5868 23.2283 16.5868 22.8667C16.5868 20.1283 18.8084 17.9067 21.5468 17.9067H26.6101C26.9718 17.9067 27.3334 17.8033 27.4884 17.6483C27.6951 17.4933 27.7468 17.3383 27.7468 17.235ZM30.2268 17.235C30.1751 19.1467 28.4701 20.3867 26.6101 20.3867H21.5468C20.1518 20.3867 19.0668 21.5233 19.0668 22.8667C19.0668 23.0733 19.0668 23.2283 19.1184 23.3833C19.2218 23.9517 19.4284 24.4167 19.6351 24.9333C19.9451 25.6567 20.3068 26.38 20.3068 27.1033C20.3068 28.7567 19.1701 30.255 17.5168 30.3067C17.3618 30.3067 17.1551 30.3067 17.0001 30.3067C9.66344 30.3067 3.77344 24.4167 3.77344 17.08C3.77344 9.795 9.66344 3.85333 17.0001 3.85333C24.2851 3.85333 30.2268 9.795 30.2268 17.08C30.2268 17.1317 30.2268 17.1833 30.2268 17.235ZM12.0401 17.08C12.0401 18.01 11.2651 18.7333 10.3868 18.7333C9.45677 18.7333 8.73344 18.01 8.73344 17.08C8.73344 16.2017 9.45677 15.4267 10.3868 15.4267C11.2651 15.4267 12.0401 16.2017 12.0401 17.08ZM12.0401 13.7733C11.1101 13.7733 10.3868 13.05 10.3868 12.12C10.3868 11.2417 11.1101 10.4667 12.0401 10.4667C12.9184 10.4667 13.6934 11.2417 13.6934 12.12C13.6934 13.05 12.9184 13.7733 12.0401 13.7733ZM18.6534 10.4667C18.6534 11.3967 17.8784 12.12 17.0001 12.12C16.0701 12.12 15.3468 11.3967 15.3468 10.4667C15.3468 9.58833 16.0701 8.81333 17.0001 8.81333C17.8784 8.81333 18.6534 9.58833 18.6534 10.4667ZM21.9601 13.7733C21.0301 13.7733 20.3068 13.05 20.3068 12.12C20.3068 11.2417 21.0301 10.4667 21.9601 10.4667C22.8384 10.4667 23.6134 11.2417 23.6134 12.12C23.6134 13.05 22.8384 13.7733 21.9601 13.7733Z"/>
</svg>
