<svg width="173" height="24" viewBox="0 0 183 24" fill="none" xmlns="http://www.w3.org/2000/svg">
<path d="M4.224 20.152V5.08H6.624V2.776H21.648V17.8H19.344V20.152H4.224ZM5.184 19.144H18.384V5.992H5.184V19.144ZM27.8803 13.1992V12.8242C27.8803 11.0664 28.3412 9.62109 29.2631 8.48828C30.185 7.35547 31.4077 6.78906 32.9311 6.78906C33.7514 6.78906 34.4545 6.93359 35.0405 7.22266C35.6264 7.51172 36.0873 7.89453 36.4233 8.37109V1.22266H38.9311V19H36.5991L36.5287 17.4531H36.4702C36.1733 17.9453 35.7123 18.3672 35.0873 18.7188C34.4702 19.0625 33.7514 19.2344 32.9311 19.2344C31.3764 19.2344 30.1459 18.668 29.2397 17.5352C28.3334 16.4023 27.8803 14.957 27.8803 13.1992ZM30.4467 13.2344C30.4467 14.3906 30.6967 15.3516 31.1967 16.1172C31.7045 16.875 32.4819 17.2539 33.5287 17.2539C34.2397 17.2539 34.8412 17.0625 35.3334 16.6797C35.8334 16.2891 36.1967 15.8398 36.4233 15.332V10.668C36.2045 10.1602 35.8452 9.71875 35.3452 9.34375C34.853 8.96094 34.2514 8.76953 33.5405 8.76953C32.4858 8.76953 31.7045 9.15234 31.1967 9.91797C30.6967 10.6758 30.4467 11.6328 30.4467 12.7891V13.2344ZM39.6759 19L45.8752 1.85547H48.5119L54.7345 19H52.0275L47.5744 6.22656C47.4884 5.95313 47.4103 5.69531 47.34 5.45312C47.2775 5.21094 47.2189 4.96484 47.1642 4.71484H47.0705C47.008 4.96484 46.9416 5.21094 46.8713 5.45312C46.8088 5.69531 46.7306 5.95313 46.6369 6.22656L42.1955 19H39.6759ZM42.6056 14.7344L43.2736 12.7305H51.0431L51.6994 14.7344H42.6056ZM55.4794 23.9336V7.02344H57.8114L57.8817 8.54688H57.9403C58.2294 8.05469 58.6903 7.63672 59.3231 7.29297C59.9637 6.94922 60.6942 6.77734 61.5145 6.77734C63.038 6.77734 64.2528 7.33594 65.1591 8.45312C66.0731 9.5625 66.5302 11.0156 66.5302 12.8125V13.1875C66.5302 14.9766 66.077 16.4336 65.1708 17.5586C64.2645 18.6758 63.0536 19.2344 61.538 19.2344C60.7177 19.2344 60.0067 19.0898 59.4052 18.8008C58.8114 18.5117 58.3387 18.1211 57.9872 17.6289V23.9336H55.4794ZM57.9872 15.3203C58.2059 15.8281 58.5653 16.2773 59.0653 16.668C59.5731 17.0586 60.1825 17.2539 60.8934 17.2539C61.9481 17.2539 62.7216 16.8789 63.2137 16.1289C63.7137 15.3789 63.9637 14.418 63.9637 13.2461V12.7539C63.9637 11.582 63.7137 10.625 63.2137 9.88281C62.7216 9.14062 61.9481 8.76953 60.8934 8.76953C60.1747 8.76953 59.5653 8.96484 59.0653 9.35547C58.5731 9.73828 58.2137 10.1836 57.9872 10.6914V15.3203ZM68.2594 23.9336V7.02344H70.5914L70.6617 8.54688H70.7203C71.0094 8.05469 71.4703 7.63672 72.1031 7.29297C72.7438 6.94922 73.4742 6.77734 74.2945 6.77734C75.818 6.77734 77.0328 7.33594 77.9391 8.45312C78.8531 9.5625 79.3102 11.0156 79.3102 12.8125V13.1875C79.3102 14.9766 78.857 16.4336 77.9508 17.5586C77.0445 18.6758 75.8336 19.2344 74.318 19.2344C73.4977 19.2344 72.7867 19.0898 72.1852 18.8008C71.5914 18.5117 71.1188 18.1211 70.7672 17.6289V23.9336H68.2594ZM70.7672 15.3203C70.9859 15.8281 71.3453 16.2773 71.8453 16.668C72.3531 17.0586 72.9625 17.2539 73.6734 17.2539C74.7281 17.2539 75.5016 16.8789 75.9938 16.1289C76.4938 15.3789 76.7438 14.418 76.7438 13.2461V12.7539C76.7438 11.582 76.4938 10.625 75.9938 9.88281C75.5016 9.14062 74.7281 8.76953 73.6734 8.76953C72.9547 8.76953 72.3453 8.96484 71.8453 9.35547C71.3531 9.73828 70.9938 10.1836 70.7672 10.6914V15.3203ZM84.128 4.02344V1.9375H97.1475V4.02344H91.9444V19H89.3311V4.02344H84.128ZM95.9822 13.1992V12.8242C95.9822 10.9961 96.4978 9.51953 97.5291 8.39453C98.5603 7.26172 99.9119 6.69531 101.584 6.69531C103.256 6.69531 104.549 7.22656 105.463 8.28906C106.377 9.34375 106.834 10.7891 106.834 12.625V13.5625H97.5525V11.793H104.326V11.5586C104.326 10.7617 104.099 10.0781 103.646 9.50781C103.193 8.92969 102.517 8.64062 101.619 8.64062C100.588 8.64062 99.8103 9.02734 99.2869 9.80078C98.7712 10.5664 98.5134 11.5469 98.5134 12.7422V13.2461C98.5134 14.4414 98.7908 15.4297 99.3455 16.2109C99.9002 16.9844 100.736 17.3711 101.853 17.3711C102.572 17.3711 103.189 17.2109 103.705 16.8906C104.228 16.5625 104.65 16.1719 104.97 15.7188L106.705 16.9023C106.338 17.543 105.74 18.1094 104.912 18.6016C104.084 19.0859 103.068 19.3281 101.865 19.3281C99.99 19.3281 98.5408 18.7656 97.5173 17.6406C96.4939 16.5078 95.9822 15.0273 95.9822 13.1992ZM108.457 19V7.02344H110.801L110.872 8.57031H110.93C111.336 8.01562 111.844 7.58203 112.454 7.26953C113.063 6.94922 113.735 6.78906 114.469 6.78906C115.29 6.78906 115.997 6.95703 116.59 7.29297C117.192 7.62891 117.633 8.14844 117.915 8.85156H117.961C118.422 8.14844 118.977 7.62891 119.625 7.29297C120.282 6.95703 121.016 6.78906 121.829 6.78906C123.032 6.78906 123.985 7.14062 124.688 7.84375C125.399 8.53906 125.754 9.70312 125.754 11.3359V19H123.235V11.3242C123.235 10.4258 123.043 9.78516 122.661 9.40234C122.286 9.01172 121.75 8.81641 121.055 8.81641C120.438 8.81641 119.903 8.98828 119.45 9.33203C118.997 9.67578 118.633 10.1289 118.36 10.6914V19H115.84V11.3359C115.84 10.4297 115.649 9.78516 115.266 9.40234C114.891 9.01172 114.352 8.81641 113.649 8.81641C113.04 8.81641 112.508 8.98828 112.055 9.33203C111.602 9.67578 111.243 10.1289 110.977 10.6914V19H108.457ZM128.058 23.9336V7.02344H130.39L130.46 8.54688H130.519C130.808 8.05469 131.269 7.63672 131.902 7.29297C132.542 6.94922 133.273 6.77734 134.093 6.77734C135.616 6.77734 136.831 7.33594 137.738 8.45312C138.652 9.5625 139.109 11.0156 139.109 12.8125V13.1875C139.109 14.9766 138.655 16.4336 137.749 17.5586C136.843 18.6758 135.632 19.2344 134.116 19.2344C133.296 19.2344 132.585 19.0898 131.984 18.8008C131.39 18.5117 130.917 18.1211 130.566 17.6289V23.9336H128.058ZM130.566 15.3203C130.784 15.8281 131.144 16.2773 131.644 16.668C132.152 17.0586 132.761 17.2539 133.472 17.2539C134.527 17.2539 135.3 16.8789 135.792 16.1289C136.292 15.3789 136.542 14.418 136.542 13.2461V12.7539C136.542 11.582 136.292 10.625 135.792 9.88281C135.3 9.14062 134.527 8.76953 133.472 8.76953C132.753 8.76953 132.144 8.96484 131.644 9.35547C131.152 9.73828 130.792 10.1836 130.566 10.6914V15.3203ZM140.896 19V1.22266H143.416V19H140.896ZM145.227 15.4961C145.227 14.2617 145.712 13.3047 146.68 12.625C147.657 11.9453 148.907 11.6055 150.43 11.6055H153.079V10.7617C153.079 10.0898 152.903 9.55469 152.551 9.15625C152.208 8.75 151.614 8.54688 150.77 8.54688C149.934 8.54688 149.329 8.71484 148.954 9.05078C148.579 9.38672 148.391 9.80078 148.391 10.293V10.4336H145.919V10.2695C145.919 9.27734 146.364 8.43359 147.255 7.73828C148.153 7.04297 149.356 6.69531 150.864 6.69531C152.364 6.69531 153.528 7.03125 154.356 7.70312C155.184 8.36719 155.598 9.39453 155.598 10.7852V16.2227C155.598 16.7227 155.637 17.1992 155.715 17.6523C155.794 18.0977 155.907 18.4844 156.055 18.8125V19H153.606C153.497 18.8047 153.399 18.5586 153.313 18.2617C153.235 17.957 153.184 17.6523 153.161 17.3477C152.887 17.832 152.426 18.2656 151.778 18.6484C151.137 19.0234 150.317 19.2109 149.317 19.2109C148.153 19.2109 147.18 18.8984 146.399 18.2734C145.618 17.6406 145.227 16.7148 145.227 15.4961ZM147.747 15.332C147.747 15.9727 147.93 16.4727 148.298 16.832C148.673 17.1914 149.247 17.3711 150.02 17.3711C150.817 17.3711 151.524 17.1016 152.141 16.5625C152.766 16.0234 153.079 15.4297 153.079 14.7812V13.2578H150.805C149.782 13.2578 149.016 13.4414 148.508 13.8086C148.001 14.1758 147.747 14.6836 147.747 15.332ZM156.449 8.93359V7.02344H163.527V8.93359H156.449ZM158.476 15.7773V7.99609L158.488 7.70312V3.80078H160.984V15.6836C160.984 16.3008 161.093 16.7227 161.312 16.9492C161.531 17.1758 161.863 17.2891 162.308 17.2891C162.511 17.2891 162.71 17.2695 162.906 17.2305C163.101 17.1914 163.296 17.1328 163.492 17.0547V19C163.296 19.0859 163.038 19.1602 162.718 19.2227C162.398 19.293 162.038 19.3281 161.64 19.3281C160.679 19.3281 159.91 19.0469 159.331 18.4844C158.761 17.9219 158.476 17.0195 158.476 15.7773ZM164.154 13.1992V12.8242C164.154 10.9961 164.67 9.51953 165.701 8.39453C166.732 7.26172 168.084 6.69531 169.756 6.69531C171.428 6.69531 172.721 7.22656 173.635 8.28906C174.549 9.34375 175.006 10.7891 175.006 12.625V13.5625H165.725V11.793H172.498V11.5586C172.498 10.7617 172.272 10.0781 171.818 9.50781C171.365 8.92969 170.69 8.64062 169.791 8.64062C168.76 8.64062 167.982 9.02734 167.459 9.80078C166.943 10.5664 166.686 11.5469 166.686 12.7422V13.2461C166.686 14.4414 166.963 15.4297 167.518 16.2109C168.072 16.9844 168.908 17.3711 170.025 17.3711C170.744 17.3711 171.361 17.2109 171.877 16.8906C172.4 16.5625 172.822 16.1719 173.143 15.7188L174.877 16.9023C174.51 17.543 173.912 18.1094 173.084 18.6016C172.256 19.0859 171.24 19.3281 170.037 19.3281C168.162 19.3281 166.713 18.7656 165.69 17.6406C164.666 16.5078 164.154 15.0273 164.154 13.1992Z"/>
</svg>
