<svg width="34" height="34" viewBox="0 0 34 34" fill="none" xmlns="http://www.w3.org/2000/svg">
<path d="M20.6684 8.29667L23.6134 7.16L24.6984 4.26667C24.7501 4.00833 25.0084 3.85333 25.2668 3.85333C25.4734 3.85333 25.7318 4.00833 25.7834 4.26667L26.9201 7.16L29.8134 8.29667C30.0718 8.34833 30.2268 8.60667 30.2268 8.81333C30.2268 9.07167 30.0718 9.33 29.8134 9.38167L26.9201 10.4667L25.7834 13.4117C25.7318 13.6183 25.4734 13.7733 25.2668 13.7733C25.0084 13.7733 24.7501 13.6183 24.6984 13.4117L23.6134 10.4667L20.6684 9.38167C20.4618 9.33 20.3068 9.07167 20.3068 8.81333C20.3068 8.60667 20.4618 8.34833 20.6684 8.29667ZM4.23844 16.2533L5.11677 15.8917L5.5301 15.685H5.58177L10.1284 13.5667L12.2468 8.96833L12.4534 8.555L12.8668 7.67667C12.9701 7.36667 13.2801 7.16 13.5901 7.16C13.9001 7.16 14.2101 7.36667 14.3651 7.67667L14.7784 8.555L14.9334 8.96833L14.9851 9.02L17.0518 13.5667L21.6501 15.685L22.0634 15.8917L22.9418 16.305C23.2518 16.4083 23.4584 16.7183 23.4584 17.0283C23.4584 17.3383 23.2518 17.6483 22.9418 17.8033L22.0634 18.165L21.6501 18.3717L17.0518 20.49L14.9334 25.0367V25.0883L14.7268 25.5017L14.3651 26.38C14.2101 26.69 13.9001 26.8967 13.5901 26.8967C13.2801 26.8967 12.9701 26.69 12.8668 26.38L12.4534 25.5017L12.2468 25.0883V25.0367L10.1284 20.49L5.58177 18.3717H5.5301L5.11677 18.165L4.23844 17.8033C3.92844 17.6483 3.77344 17.3383 3.77344 17.0283C3.77344 16.7183 3.92844 16.4083 4.23844 16.2533ZM8.52677 17.0283L11.1618 18.2683C11.6784 18.475 12.1434 18.94 12.4018 19.4567L13.5901 22.0917L14.8301 19.4567C15.0884 18.94 15.5018 18.475 16.0184 18.2683L18.6534 17.0283L16.0184 15.7883C15.5018 15.5817 15.0884 15.1167 14.8301 14.6L13.5901 11.965L12.4018 14.6C12.1434 15.1167 11.6784 15.5817 11.1618 15.7883L8.52677 17.0283ZM23.6134 23.6933L24.6984 20.8C24.7501 20.5417 25.0084 20.3867 25.2668 20.3867C25.4734 20.3867 25.7318 20.5417 25.7834 20.8L26.9201 23.6933L29.8134 24.83C30.0718 24.8817 30.2268 25.14 30.2268 25.3467C30.2268 25.605 30.0718 25.8633 29.8134 25.915L26.9201 27L25.7834 29.945C25.7318 30.1517 25.4734 30.3067 25.2668 30.3067C25.0084 30.3067 24.7501 30.1517 24.6984 29.945L23.6134 27L20.6684 25.915C20.4618 25.8633 20.3068 25.605 20.3068 25.3467C20.3068 25.14 20.4618 24.8817 20.6684 24.83L23.6134 23.6933Z"/>
</svg>
