<svg width="46" height="44" viewBox="0 0 46 44" fill="none" xmlns="http://www.w3.org/2000/svg">
<mask id="mask0_10402_51182" style="mask-type:alpha" maskUnits="userSpaceOnUse" x="0" y="4" width="40" height="40">
<path fill-rule="evenodd" clip-rule="evenodd" d="M40 16.4576C40 15.9828 40.0002 15.5079 39.9973 15.033C39.9949 14.6329 39.9903 14.233 39.9794 13.8331C39.9559 12.9616 39.9045 12.0826 39.7495 11.2208C39.5923 10.3466 39.3356 9.53299 38.9311 8.73867C38.5335 7.95795 38.014 7.24353 37.3942 6.62417C36.7745 6.0048 36.0599 5.48567 35.2789 5.08825C34.4838 4.68364 33.6693 4.42704 32.7941 4.2699C31.9322 4.11515 31.053 4.06383 30.1815 4.04029C29.7813 4.02947 29.3812 4.0249 28.9809 4.02243C28.5058 4.01951 28.0307 4.01976 27.5555 4.01976L22.0387 4H17.9125L12.4933 4.01976C12.0172 4.01976 11.5411 4.01951 11.0651 4.02243C10.664 4.0249 10.2631 4.02947 9.86221 4.04029C8.98867 4.06383 8.10746 4.11519 7.24354 4.27014C6.36719 4.42723 5.55146 4.68374 4.75526 5.08805C3.97259 5.48553 3.25643 6.0047 2.63547 6.62417C2.0146 7.24348 1.49416 7.95775 1.09577 8.73833C0.69014 9.53304 0.432958 10.3472 0.275386 11.2219C0.120242 12.0833 0.0688344 12.962 0.0451938 13.8331C0.0344172 14.233 0.0297571 14.633 0.0273299 15.033C0.0244173 15.5079 0 16.0979 0 16.5728L0.00014563 21.9169L0 26.0873L0.02466 31.545C0.02466 32.0205 0.0244658 32.4961 0.0273299 32.9716C0.0297571 33.3722 0.0344172 33.7727 0.0452424 34.1731C0.0688344 35.0457 0.120339 35.926 0.275629 36.7889C0.433152 37.6643 0.690286 38.4791 1.09557 39.2744C1.49402 40.0563 2.01455 40.7716 2.63547 41.3919C3.25638 42.0121 3.97235 42.5319 4.75487 42.9299C5.55156 43.335 6.36767 43.592 7.24456 43.7493C8.1081 43.9043 8.98901 43.9557 9.86221 43.9793C10.2631 43.9901 10.664 43.9947 11.0651 43.9971C11.5412 44 12.0172 43.9999 12.4933 43.9999L17.9615 44H22.0979L27.5555 43.9998C28.0307 43.9998 28.5058 44 28.9809 43.9971C29.3812 43.9947 29.7813 43.9901 30.1815 43.9793C31.0533 43.9557 31.9328 43.9042 32.7951 43.7491C33.6698 43.5918 34.4839 43.335 35.2786 42.9301C36.0597 42.5321 36.7745 42.0122 37.3942 41.3919C38.0139 40.7717 38.5333 40.0565 38.931 39.2748C39.3357 38.479 39.5924 37.6639 39.7497 36.7879C39.9046 35.9253 39.9559 35.0454 39.9795 34.1731C39.9903 33.7726 39.9949 33.3721 39.9973 32.9716C40.0002 32.4961 40 32.0205 40 31.545C40 31.545 39.9997 26.1837 39.9997 26.0873V21.9126C39.9997 21.8414 40 16.4576 40 16.4576Z" fill="white"/>
</mask>
<g mask="url(#mask0_10402_51182)">
<path fill-rule="evenodd" clip-rule="evenodd" d="M40 16.4576C40 15.9828 40.0002 15.5079 39.9973 15.033C39.9949 14.6329 39.9903 14.233 39.9794 13.8331C39.9559 12.9616 39.9045 12.0826 39.7495 11.2208C39.5923 10.3466 39.3356 9.53299 38.9311 8.73867C38.5335 7.95795 38.014 7.24353 37.3942 6.62417C36.7745 6.0048 36.0599 5.48567 35.2789 5.08825C34.4838 4.68364 33.6693 4.42704 32.7941 4.2699C31.9322 4.11515 31.053 4.06383 30.1815 4.04029C29.7813 4.02947 29.3812 4.0249 28.9809 4.02243C28.5058 4.01951 28.0307 4.01976 27.5555 4.01976L22.0387 4H17.9125L12.4933 4.01976C12.0172 4.01976 11.5411 4.01951 11.0651 4.02243C10.664 4.0249 10.2631 4.02947 9.86221 4.04029C8.98867 4.06383 8.10746 4.11519 7.24354 4.27014C6.36719 4.42723 5.55146 4.68374 4.75526 5.08805C3.97259 5.48553 3.25643 6.0047 2.63547 6.62417C2.0146 7.24348 1.49416 7.95775 1.09577 8.73833C0.69014 9.53304 0.432958 10.3472 0.275386 11.2219C0.120242 12.0833 0.0688344 12.962 0.0451938 13.8331C0.0344172 14.233 0.0297571 14.633 0.0273299 15.033C0.0244173 15.5079 0 16.0979 0 16.5728L0.00014563 21.9169L0 26.0873L0.02466 31.545C0.02466 32.0205 0.0244658 32.4961 0.0273299 32.9716C0.0297571 33.3722 0.0344172 33.7727 0.0452424 34.1731C0.0688344 35.0457 0.120339 35.926 0.275629 36.7889C0.433152 37.6643 0.690286 38.4791 1.09557 39.2744C1.49402 40.0563 2.01455 40.7716 2.63547 41.3919C3.25638 42.0121 3.97235 42.5319 4.75487 42.9299C5.55156 43.335 6.36767 43.592 7.24456 43.7493C8.1081 43.9043 8.98901 43.9557 9.86221 43.9793C10.2631 43.9901 10.664 43.9947 11.0651 43.9971C11.5412 44 12.0172 43.9999 12.4933 43.9999L17.9615 44H22.0979L27.5555 43.9998C28.0307 43.9998 28.5058 44 28.9809 43.9971C29.3812 43.9947 29.7813 43.9901 30.1815 43.9793C31.0533 43.9557 31.9328 43.9042 32.7951 43.7491C33.6698 43.5918 34.4839 43.335 35.2786 42.9301C36.0597 42.5321 36.7745 42.0122 37.3942 41.3919C38.0139 40.7717 38.5333 40.0565 38.931 39.2748C39.3357 38.479 39.5924 37.6639 39.7497 36.7879C39.9046 35.9253 39.9559 35.0454 39.9795 34.1731C39.9903 33.7726 39.9949 33.3721 39.9973 32.9716C40.0002 32.4961 40 32.0205 40 31.545C40 31.545 39.9997 26.1837 39.9997 26.0873V21.9126C39.9997 21.8414 40 16.4576 40 16.4576Z" fill="#143736"/>
<rect opacity="0.4" x="0.169903" y="10.3349" width="39.6602" height="39.6602" rx="8.76214" fill="url(#paint0_linear_10402_51182)" stroke="url(#paint1_linear_10402_51182)" stroke-width="0.339806"/>
<rect x="0.169903" y="16.5" width="39.6602" height="39.6602" rx="8.76214" fill="url(#paint2_linear_10402_51182)" stroke="url(#paint3_linear_10402_51182)" stroke-width="0.339806"/>
<g filter="url(#filter0_dddd_10402_51182)">
<path d="M13.1387 26.2337L18.8354 23.1782L17.8776 21.3301L12.6614 23.4483C12.527 23.5029 12.3781 23.5029 12.2438 23.4483L7.02607 21.3301L6.06836 23.1782L11.765 26.2337L6.06836 29.2878L7.02607 31.1359L12.2423 29.0177C12.3767 28.9631 12.5256 28.9631 12.6599 29.0177L17.8762 31.1359L18.8339 29.2878L13.1373 26.2323L13.1387 26.2337Z" fill="#000F0E"/>
</g>
</g>
<g clip-path="url(#clip0_10402_51182)">
<path d="M44.3861 3.13997C43.6739 2.19541 42.7586 1.42298 41.7077 0.879788C40.6569 0.336596 39.4974 0.0365277 38.3149 0.00176513C36.4573 -0.0354348 35.1741 0.522765 34.4481 0.971565C35.4195 0.408165 36.8253 0.0885652 38.0561 0.104365C41.2221 0.144365 44.6225 2.30057 45.1275 6.18697C45.7075 10.6482 42.6001 14.3716 38.2289 14.383C33.4199 14.3952 30.4949 10.1372 31.2595 6.31257C31.2737 6.12504 31.3013 5.93876 31.3421 5.75517C31.4365 4.77495 31.7213 3.82259 32.1807 2.95157C31.6269 3.23817 30.9217 4.14457 30.5737 4.98417C30.0671 6.26517 29.8885 7.65242 30.0541 9.01997C30.0661 9.12357 30.0769 9.22697 30.0905 9.32977C30.2979 10.5239 30.7735 11.6554 31.4814 12.6391C32.1894 13.6229 33.1113 14.4332 34.1778 15.009C35.2443 15.5849 36.4275 15.9113 37.6383 15.9637C38.8492 16.0161 40.0562 15.7931 41.1684 15.3115C42.2806 14.83 43.2691 14.1024 44.0594 13.1835C44.8497 12.2646 45.4213 11.1784 45.731 10.0066C46.0408 8.83488 46.0807 7.60813 45.8478 6.41873C45.6148 5.22933 45.115 4.10827 44.3861 3.13997Z" fill="url(#paint4_radial_10402_51182)"/>
<path opacity="0.67" d="M44.3861 3.13997C43.6739 2.19541 42.7586 1.42298 41.7077 0.879788C40.6569 0.336596 39.4974 0.0365277 38.3149 0.00176513C36.4573 -0.0354348 35.1741 0.522765 34.4481 0.971565C35.4195 0.408165 36.8253 0.0885652 38.0561 0.104365C41.2221 0.144365 44.6225 2.30057 45.1275 6.18697C45.7075 10.6482 42.6001 14.3716 38.2289 14.383C33.4199 14.3952 30.4949 10.1372 31.2595 6.31257C31.2737 6.12504 31.3013 5.93876 31.3421 5.75517C31.4365 4.77495 31.7213 3.82259 32.1807 2.95157C31.6269 3.23817 30.9217 4.14457 30.5737 4.98417C30.0671 6.26517 29.8885 7.65242 30.0541 9.01997C30.0661 9.12357 30.0769 9.22697 30.0905 9.32977C30.2979 10.5239 30.7735 11.6554 31.4814 12.6391C32.1894 13.6229 33.1113 14.4332 34.1778 15.009C35.2443 15.5849 36.4275 15.9113 37.6383 15.9637C38.8492 16.0161 40.0562 15.7931 41.1684 15.3115C42.2806 14.83 43.2691 14.1024 44.0594 13.1835C44.8497 12.2646 45.4213 11.1784 45.731 10.0066C46.0408 8.83488 46.0807 7.60813 45.8478 6.41873C45.6148 5.22933 45.115 4.10827 44.3861 3.13997Z" fill="url(#paint5_radial_10402_51182)"/>
<path d="M44.3861 3.13997C43.6739 2.19541 42.7586 1.42298 41.7077 0.879788C40.6569 0.336596 39.4974 0.0365277 38.3149 0.00176513C36.4573 -0.0354348 35.1741 0.522765 34.4481 0.971565C35.4195 0.408165 36.8253 0.0885652 38.0561 0.104365C41.2221 0.144365 44.6225 2.30057 45.1275 6.18697C45.7075 10.6482 42.6001 14.3716 38.2289 14.383C33.4199 14.3952 30.4949 10.1372 31.2595 6.31257C31.2737 6.12504 31.3013 5.93876 31.3421 5.75517C31.4365 4.77495 31.7213 3.82259 32.1807 2.95157C31.6269 3.23817 30.9217 4.14457 30.5737 4.98417C30.0671 6.26517 29.8885 7.65242 30.0541 9.01997C30.0661 9.12357 30.0769 9.22697 30.0905 9.32977C30.2979 10.5239 30.7735 11.6554 31.4814 12.6391C32.1894 13.6229 33.1113 14.4332 34.1778 15.009C35.2443 15.5849 36.4275 15.9113 37.6383 15.9637C38.8492 16.0161 40.0562 15.7931 41.1684 15.3115C42.2806 14.83 43.2691 14.1024 44.0594 13.1835C44.8497 12.2646 45.4213 11.1784 45.731 10.0066C46.0408 8.83488 46.0807 7.60813 45.8478 6.41873C45.6148 5.22933 45.115 4.10827 44.3861 3.13997Z" fill="url(#paint6_radial_10402_51182)"/>
<path d="M44.3861 3.13997C43.6739 2.19541 42.7586 1.42298 41.7077 0.879788C40.6569 0.336596 39.4974 0.0365277 38.3149 0.00176513C36.4573 -0.0354348 35.1741 0.522765 34.4481 0.971565C35.4195 0.408165 36.8253 0.0885652 38.0561 0.104365C41.2221 0.144365 44.6225 2.30057 45.1275 6.18697C45.7075 10.6482 42.6001 14.3716 38.2289 14.383C33.4199 14.3952 30.4949 10.1372 31.2595 6.31257C31.2737 6.12504 31.3013 5.93876 31.3421 5.75517C31.4365 4.77495 31.7213 3.82259 32.1807 2.95157C31.6269 3.23817 30.9217 4.14457 30.5737 4.98417C30.0671 6.26517 29.8885 7.65242 30.0541 9.01997C30.0661 9.12357 30.0769 9.22697 30.0905 9.32977C30.2979 10.5239 30.7735 11.6554 31.4814 12.6391C32.1894 13.6229 33.1113 14.4332 34.1778 15.009C35.2443 15.5849 36.4275 15.9113 37.6383 15.9637C38.8492 16.0161 40.0562 15.7931 41.1684 15.3115C42.2806 14.83 43.2691 14.1024 44.0594 13.1835C44.8497 12.2646 45.4213 11.1784 45.731 10.0066C46.0408 8.83488 46.0807 7.60813 45.8478 6.41873C45.6148 5.22933 45.115 4.10827 44.3861 3.13997Z" fill="url(#paint7_radial_10402_51182)"/>
<path d="M44.3861 3.13997C43.6739 2.19541 42.7586 1.42298 41.7077 0.879788C40.6569 0.336596 39.4974 0.0365277 38.3149 0.00176513C36.4573 -0.0354348 35.1741 0.522765 34.4481 0.971565C35.4195 0.408165 36.8253 0.0885652 38.0561 0.104365C41.2221 0.144365 44.6225 2.30057 45.1275 6.18697C45.7075 10.6482 42.6001 14.3716 38.2289 14.383C33.4199 14.3952 30.4949 10.1372 31.2595 6.31257C31.2737 6.12504 31.3013 5.93876 31.3421 5.75517C31.4365 4.77495 31.7213 3.82259 32.1807 2.95157C31.6269 3.23817 30.9217 4.14457 30.5737 4.98417C30.0671 6.26517 29.8885 7.65242 30.0541 9.01997C30.0661 9.12357 30.0769 9.22697 30.0905 9.32977C30.2979 10.5239 30.7735 11.6554 31.4814 12.6391C32.1894 13.6229 33.1113 14.4332 34.1778 15.009C35.2443 15.5849 36.4275 15.9113 37.6383 15.9637C38.8492 16.0161 40.0562 15.7931 41.1684 15.3115C42.2806 14.83 43.2691 14.1024 44.0594 13.1835C44.8497 12.2646 45.4213 11.1784 45.731 10.0066C46.0408 8.83488 46.0807 7.60813 45.8478 6.41873C45.6148 5.22933 45.115 4.10827 44.3861 3.13997Z" fill="url(#paint8_radial_10402_51182)"/>
<path d="M45.3221 5.96509C44.8719 1.90349 41.2497 0.0778858 38.0559 0.104286C36.8249 0.114286 35.4193 0.408086 34.4479 0.971486C34.1908 1.1239 33.952 1.30507 33.7359 1.51149C33.7617 1.49009 33.8387 1.42669 33.9663 1.33909L33.9789 1.33049L33.9901 1.32289C34.4615 1.00418 34.9808 0.762991 35.5285 0.608486C36.3864 0.371353 37.2756 0.267275 38.1651 0.299886C39.8159 0.398467 41.3708 1.10855 42.5264 2.2916C43.6819 3.47465 44.3553 5.0458 44.4151 6.69849C44.4885 9.33989 42.3267 11.4459 39.8347 11.5679C38.0223 11.6567 36.3147 10.7797 35.4807 9.02529C35.2856 8.62572 35.1531 8.19853 35.0879 7.75869C34.6927 5.08869 36.4857 2.81169 38.1299 2.24789C37.2429 1.47309 35.0203 1.52569 33.3661 2.74269C32.1749 3.61909 31.4021 4.95249 31.1461 6.54269C30.9619 7.76284 31.1241 9.01018 31.6141 10.1427C32.1231 11.3437 32.9548 12.3802 34.0171 13.1372C35.0793 13.8942 36.3305 14.3421 37.6319 14.4313C37.8304 14.4465 38.0293 14.454 38.2287 14.4539C43.5211 14.4539 45.8171 10.4365 45.3221 5.96509Z" fill="url(#paint9_radial_10402_51182)"/>
<path d="M45.3221 5.96509C44.8719 1.90349 41.2497 0.0778858 38.0559 0.104286C36.8249 0.114286 35.4193 0.408086 34.4479 0.971486C34.1908 1.1239 33.952 1.30507 33.7359 1.51149C33.7617 1.49009 33.8387 1.42669 33.9663 1.33909L33.9789 1.33049L33.9901 1.32289C34.4615 1.00418 34.9808 0.762991 35.5285 0.608486C36.3864 0.371353 37.2756 0.267275 38.1651 0.299886C39.8159 0.398467 41.3708 1.10855 42.5264 2.2916C43.6819 3.47465 44.3553 5.0458 44.4151 6.69849C44.4885 9.33989 42.3267 11.4459 39.8347 11.5679C38.0223 11.6567 36.3147 10.7797 35.4807 9.02529C35.2856 8.62572 35.1531 8.19853 35.0879 7.75869C34.6927 5.08869 36.4857 2.81169 38.1299 2.24789C37.2429 1.47309 35.0203 1.52569 33.3661 2.74269C32.1749 3.61909 31.4021 4.95249 31.1461 6.54269C30.9619 7.76284 31.1241 9.01018 31.6141 10.1427C32.1231 11.3437 32.9548 12.3802 34.0171 13.1372C35.0793 13.8942 36.3305 14.3421 37.6319 14.4313C37.8304 14.4465 38.0293 14.454 38.2287 14.4539C43.5211 14.4539 45.8171 10.4365 45.3221 5.96509Z" fill="url(#paint10_radial_10402_51182)"/>
<path style="mix-blend-mode:multiply" opacity="0.53" d="M45.3221 5.96509C44.8719 1.90349 41.2497 0.0778858 38.0559 0.104286C36.8249 0.114286 35.4193 0.408086 34.4479 0.971486C34.1908 1.1239 33.952 1.30507 33.7359 1.51149C33.7617 1.49009 33.8387 1.42669 33.9663 1.33909L33.9789 1.33049L33.9901 1.32289C34.4615 1.00418 34.9808 0.762991 35.5285 0.608486C36.3864 0.371353 37.2756 0.267275 38.1651 0.299886C39.8159 0.398467 41.3708 1.10855 42.5264 2.2916C43.6819 3.47465 44.3553 5.0458 44.4151 6.69849C44.4885 9.33989 42.3267 11.4459 39.8347 11.5679C38.0223 11.6567 36.3147 10.7797 35.4807 9.02529C35.2856 8.62572 35.1531 8.19853 35.0879 7.75869C34.6927 5.08869 36.4857 2.81169 38.1299 2.24789C37.2429 1.47309 35.0203 1.52569 33.3661 2.74269C32.1749 3.61909 31.4021 4.95249 31.1461 6.54269C30.9619 7.76284 31.1241 9.01018 31.6141 10.1427C32.1231 11.3437 32.9548 12.3802 34.0171 13.1372C35.0793 13.8942 36.3305 14.3421 37.6319 14.4313C37.8304 14.4465 38.0293 14.454 38.2287 14.4539C43.5211 14.4539 45.8171 10.4365 45.3221 5.96509Z" fill="url(#paint11_radial_10402_51182)"/>
<path style="mix-blend-mode:multiply" opacity="0.53" d="M45.3221 5.96509C44.8719 1.90349 41.2497 0.0778858 38.0559 0.104286C36.8249 0.114286 35.4193 0.408086 34.4479 0.971486C34.1908 1.1239 33.952 1.30507 33.7359 1.51149C33.7617 1.49009 33.8387 1.42669 33.9663 1.33909L33.9789 1.33049L33.9901 1.32289C34.4615 1.00418 34.9808 0.762991 35.5285 0.608486C36.3864 0.371353 37.2756 0.267275 38.1651 0.299886C39.8159 0.398467 41.3708 1.10855 42.5264 2.2916C43.6819 3.47465 44.3553 5.0458 44.4151 6.69849C44.4885 9.33989 42.3267 11.4459 39.8347 11.5679C38.0223 11.6567 36.3147 10.7797 35.4807 9.02529C35.2856 8.62572 35.1531 8.19853 35.0879 7.75869C34.6927 5.08869 36.4857 2.81169 38.1299 2.24789C37.2429 1.47309 35.0203 1.52569 33.3661 2.74269C32.1749 3.61909 31.4021 4.95249 31.1461 6.54269C30.9619 7.76284 31.1241 9.01018 31.6141 10.1427C32.1231 11.3437 32.9548 12.3802 34.0171 13.1372C35.0793 13.8942 36.3305 14.3421 37.6319 14.4313C37.8304 14.4465 38.0293 14.454 38.2287 14.4539C43.5211 14.4539 45.8171 10.4365 45.3221 5.96509Z" fill="url(#paint12_radial_10402_51182)"/>
<path d="M39.8371 11.5678C43.2571 11.3598 44.7211 8.52784 44.8129 6.51884C44.9561 3.37984 43.0939 -0.00415969 38.1675 0.29984C37.278 0.267425 36.3888 0.371705 35.5309 0.60904C34.9858 0.770103 34.4674 1.01084 33.9925 1.32344L33.9813 1.33104L33.9687 1.33964C33.8922 1.39297 33.8173 1.44911 33.7441 1.50804C35.0193 0.795006 36.4926 0.518555 37.9395 0.72084C40.7679 1.09204 43.3539 3.29224 43.3539 6.19544C43.3539 8.42924 41.6277 10.1354 39.6063 10.0128C36.6033 9.83284 35.8463 6.75284 37.4085 5.42204C36.9873 5.33144 36.1957 5.50904 35.6445 6.33304C35.1499 7.07304 35.1779 8.21504 35.4831 9.02524C35.8636 9.84205 36.4843 10.5232 37.2624 10.9776C38.0405 11.432 38.9388 11.6379 39.8371 11.5678Z" fill="url(#paint13_radial_10402_51182)"/>
<path d="M44.4046 3.74498C44.199 3.13866 43.8661 2.58331 43.4282 2.11618C42.908 1.57403 42.2911 1.13364 41.6094 0.817577C41.0403 0.537038 40.4402 0.324314 39.8214 0.183777C38.7307 -0.0549762 37.602 -0.0617902 36.5084 0.163777C35.3718 0.403777 34.3724 0.895577 33.7402 1.51038C34.2443 1.22559 34.7846 1.01031 35.3464 0.870377C36.4381 0.596043 37.5813 0.600629 38.6707 0.883714C39.7602 1.1668 40.761 1.71929 41.581 2.49038C41.9134 2.80557 42.2043 3.16176 42.4468 3.55038C43.4258 5.14218 43.3332 7.14338 42.5698 8.32358C42.0028 9.20038 40.7884 10.0236 39.6554 10.014C40.5082 10.0783 41.3624 9.91011 42.127 9.52722C42.8917 9.14433 43.5381 8.56113 43.9974 7.83978C44.7952 6.59498 44.8224 5.01078 44.4046 3.74498Z" fill="url(#paint14_linear_10402_51182)"/>
<path d="M44.4046 3.74498C44.199 3.13866 43.8661 2.58331 43.4282 2.11618C42.908 1.57403 42.2911 1.13364 41.6094 0.817577C41.0403 0.537038 40.4402 0.324314 39.8214 0.183777C38.7307 -0.0549762 37.602 -0.0617902 36.5084 0.163777C35.3718 0.403777 34.3724 0.895577 33.7402 1.51038C34.2443 1.22559 34.7846 1.01031 35.3464 0.870377C36.4381 0.596043 37.5813 0.600629 38.6707 0.883714C39.7602 1.1668 40.761 1.71929 41.581 2.49038C41.9134 2.80557 42.2043 3.16176 42.4468 3.55038C43.4258 5.14218 43.3332 7.14338 42.5698 8.32358C42.0028 9.20038 40.7884 10.0236 39.6554 10.014C40.5082 10.0783 41.3624 9.91011 42.127 9.52722C42.8917 9.14433 43.5381 8.56113 43.9974 7.83978C44.7952 6.59498 44.8224 5.01078 44.4046 3.74498Z" fill="url(#paint15_linear_10402_51182)"/>
<path d="M44.3861 3.14011C44.1718 2.85956 43.9391 2.59351 43.6897 2.34371C43.4916 2.13427 43.2793 1.93874 43.0543 1.75851C43.1837 1.87126 43.3072 1.99076 43.4241 2.11651C43.8619 2.58368 44.1948 3.13902 44.4005 3.74531C44.8183 5.01111 44.7911 6.59531 43.9933 7.83951C43.5503 8.53671 42.9317 9.10508 42.1995 9.48756C41.4674 9.87004 40.6475 10.0532 39.8223 10.0185C39.7501 10.0185 39.6773 10.0185 39.6041 10.0131C36.6011 9.83311 35.8441 6.75312 37.4065 5.42232C36.9851 5.33172 36.1935 5.50932 35.6423 6.33332C35.1477 7.07332 35.1757 8.21531 35.4809 9.02551C35.2858 8.62594 35.1534 8.19875 35.0883 7.75891C34.6929 5.08891 36.4859 2.81191 38.1301 2.24811C37.2431 1.47331 35.0205 1.52591 33.3663 2.74291C32.3933 3.47018 31.6849 4.49561 31.3489 5.66291C31.4559 4.71568 31.738 3.79657 32.1807 2.95232C31.6269 3.23892 30.9217 4.14532 30.5737 4.98492C30.0672 6.26574 29.8886 7.65277 30.0541 9.02011C30.0661 9.12371 30.0769 9.22712 30.0905 9.32992C30.2978 10.524 30.7734 11.6556 31.4814 12.6393C32.1894 13.623 33.1113 14.4333 34.1777 15.0092C35.2442 15.585 36.4274 15.9115 37.6383 15.9639C38.8491 16.0163 40.0561 15.7933 41.1683 15.3117C42.2806 14.8301 43.269 14.1025 44.0593 13.1836C44.8497 12.2647 45.4212 11.1785 45.731 10.0068C46.0407 8.83503 46.0807 7.60828 45.8477 6.41888C45.6147 5.22947 45.115 4.10842 44.3861 3.14011Z" fill="url(#paint16_linear_10402_51182)"/>
</g>
<defs>
<filter id="filter0_dddd_10402_51182" x="-4.9996" y="12.398" width="34.9035" height="31.9416" filterUnits="userSpaceOnUse" color-interpolation-filters="sRGB">
<feFlood flood-opacity="0" result="BackgroundImageFix"/>
<feColorMatrix in="SourceAlpha" type="matrix" values="0 0 0 0 0 0 0 0 0 0 0 0 0 0 0 0 0 0 127 0" result="hardAlpha"/>
<feOffset dy="0.970874"/>
<feGaussianBlur stdDeviation="1.26214"/>
<feComposite in2="hardAlpha" operator="out"/>
<feColorMatrix type="matrix" values="0 0 0 0 0.137255 0 0 0 0 0.968627 0 0 0 0 0.866667 0 0 0 0.1 0"/>
<feBlend mode="normal" in2="BackgroundImageFix" result="effect1_dropShadow_10402_51182"/>
<feColorMatrix in="SourceAlpha" type="matrix" values="0 0 0 0 0 0 0 0 0 0 0 0 0 0 0 0 0 0 127 0" result="hardAlpha"/>
<feOffset dy="2.13592"/>
<feGaussianBlur stdDeviation="5.53398"/>
<feComposite in2="hardAlpha" operator="out"/>
<feColorMatrix type="matrix" values="0 0 0 0 0.137255 0 0 0 0 0.968627 0 0 0 0 0.866667 0 0 0 0.3 0"/>
<feBlend mode="normal" in2="effect1_dropShadow_10402_51182" result="effect2_dropShadow_10402_51182"/>
<feColorMatrix in="SourceAlpha" type="matrix" values="0 0 0 0 0 0 0 0 0 0 0 0 0 0 0 0 0 0 127 0" result="hardAlpha"/>
<feOffset dy="0.291262"/>
<feGaussianBlur stdDeviation="0.533981"/>
<feComposite in2="hardAlpha" operator="out"/>
<feColorMatrix type="matrix" values="0 0 0 0 0 0 0 0 0 0 0 0 0 0 0 0 0 0 0.35 0"/>
<feBlend mode="normal" in2="effect2_dropShadow_10402_51182" result="effect3_dropShadow_10402_51182"/>
<feColorMatrix in="SourceAlpha" type="matrix" values="0 0 0 0 0 0 0 0 0 0 0 0 0 0 0 0 0 0 127 0" result="hardAlpha"/>
<feOffset dy="0.194175"/>
<feGaussianBlur stdDeviation="0.0970874"/>
<feComposite in2="hardAlpha" operator="out"/>
<feColorMatrix type="matrix" values="0 0 0 0 0 0 0 0 0 0 0 0 0 0 0 0 0 0 0.25 0"/>
<feBlend mode="normal" in2="effect3_dropShadow_10402_51182" result="effect4_dropShadow_10402_51182"/>
<feBlend mode="normal" in="SourceGraphic" in2="effect4_dropShadow_10402_51182" result="shape"/>
</filter>
<linearGradient id="paint0_linear_10402_51182" x1="20.2306" y1="19.1846" x2="20.2306" y2="39.6748" gradientUnits="userSpaceOnUse">
<stop stop-color="#00FFE0"/>
<stop offset="1" stop-color="#00FFE0"/>
</linearGradient>
<linearGradient id="paint1_linear_10402_51182" x1="6.49826" y1="30.7502" x2="42.1154" y2="27.4436" gradientUnits="userSpaceOnUse">
<stop stop-color="#00FFE0"/>
<stop offset="1" stop-color="#4CFFE9"/>
</linearGradient>
<linearGradient id="paint2_linear_10402_51182" x1="20.2306" y1="25.3497" x2="20.2306" y2="45.8399" gradientUnits="userSpaceOnUse">
<stop stop-color="#00FFE0"/>
<stop offset="1" stop-color="#00FFE0"/>
</linearGradient>
<linearGradient id="paint3_linear_10402_51182" x1="6.49826" y1="36.9152" x2="42.1154" y2="33.6087" gradientUnits="userSpaceOnUse">
<stop stop-color="#00FFE0"/>
<stop offset="1" stop-color="#4CFFE9"/>
</linearGradient>
<radialGradient id="paint4_radial_10402_51182" cx="0" cy="0" r="1" gradientUnits="userSpaceOnUse" gradientTransform="translate(1259.03 191.654) scale(1152.22 1149.93)">
<stop stop-color="#FFF36E"/>
<stop offset="0.5" stop-color="#FC4055"/>
<stop offset="1" stop-color="#E31587"/>
</radialGradient>
<radialGradient id="paint5_radial_10402_51182" cx="0" cy="0" r="1" gradientUnits="userSpaceOnUse" gradientTransform="translate(158.018 229.985) scale(896.169 894.387)">
<stop stop-color="#C60084"/>
<stop offset="1" stop-color="#FC4055" stop-opacity="0"/>
</radialGradient>
<radialGradient id="paint6_radial_10402_51182" cx="0" cy="0" r="1" gradientUnits="userSpaceOnUse" gradientTransform="translate(1438.26 102.216) scale(1702.72 1699.34)">
<stop stop-color="#FFDE67" stop-opacity="0.6"/>
<stop offset="0.66" stop-color="#FC4055" stop-opacity="0"/>
</radialGradient>
<radialGradient id="paint7_radial_10402_51182" cx="0" cy="0" r="1" gradientUnits="userSpaceOnUse" gradientTransform="translate(593.3 651.625) scale(2240.42 2235.97)">
<stop offset="0.15" stop-color="#810220"/>
<stop offset="0.27" stop-color="#FC4055" stop-opacity="0"/>
</radialGradient>
<radialGradient id="paint8_radial_10402_51182" cx="0" cy="0" r="1" gradientUnits="userSpaceOnUse" gradientTransform="translate(708.522 702.733) scale(2048.39 2044.31)">
<stop offset="0.12" stop-color="#810220"/>
<stop offset="0.3" stop-color="#FC4055" stop-opacity="0"/>
</radialGradient>
<radialGradient id="paint9_radial_10402_51182" cx="0" cy="0" r="1" gradientUnits="userSpaceOnUse" gradientTransform="translate(1061.79 126.383) scale(1271.22 1274.27)">
<stop stop-color="#FF9640"/>
<stop offset="0.8" stop-color="#FC4055"/>
</radialGradient>
<radialGradient id="paint10_radial_10402_51182" cx="0" cy="0" r="1" gradientUnits="userSpaceOnUse" gradientTransform="translate(1073.24 206.742) scale(1294.12 1297.23)">
<stop offset="0.09" stop-color="#FFDE67"/>
<stop offset="0.82" stop-color="#FF9640" stop-opacity="0"/>
</radialGradient>
<radialGradient id="paint11_radial_10402_51182" cx="0" cy="0" r="1" gradientUnits="userSpaceOnUse" gradientTransform="translate(752.574 562.619) scale(618.43 619.915)">
<stop offset="0.36" stop-color="#FC4055"/>
<stop offset="0.59" stop-color="#FF9640" stop-opacity="0"/>
</radialGradient>
<radialGradient id="paint12_radial_10402_51182" cx="0" cy="0" r="1" gradientUnits="userSpaceOnUse" gradientTransform="translate(638.05 597.059) scale(618.43 619.915)">
<stop offset="0.22" stop-color="#FC4055" stop-opacity="0.8"/>
<stop offset="0.47" stop-color="#FF9640" stop-opacity="0"/>
</radialGradient>
<radialGradient id="paint13_radial_10402_51182" cx="0" cy="0" r="1" gradientUnits="userSpaceOnUse" gradientTransform="translate(999.608 18.3615) scale(1506.39 1536.86)">
<stop offset="0.05" stop-color="#FFF36E"/>
<stop offset="0.55" stop-color="#FF9640"/>
<stop offset="0.7" stop-color="#FF9640"/>
</radialGradient>
<linearGradient id="paint14_linear_10402_51182" x1="470.998" y1="-24.0674" x2="688.242" y2="645.559" gradientUnits="userSpaceOnUse">
<stop stop-color="#B833E1"/>
<stop offset="0.37" stop-color="#9059FF"/>
<stop offset="1" stop-color="#0090ED"/>
</linearGradient>
<linearGradient id="paint15_linear_10402_51182" x1="777.079" y1="409.137" x2="358.505" y2="-116.026" gradientUnits="userSpaceOnUse">
<stop stop-color="#592ACB" stop-opacity="0.5"/>
<stop offset="0.24" stop-color="#722291" stop-opacity="0"/>
</linearGradient>
<linearGradient id="paint16_linear_10402_51182" x1="990.171" y1="104.241" x2="411.038" y2="1189.19" gradientUnits="userSpaceOnUse">
<stop stop-color="#FFF36E" stop-opacity="0.8"/>
<stop offset="0.09" stop-color="#FFF36E" stop-opacity="0.7"/>
<stop offset="0.75" stop-color="#FFF36E" stop-opacity="0"/>
</linearGradient>
<clipPath id="clip0_10402_51182">
<rect width="16" height="16" fill="white" transform="translate(30)"/>
</clipPath>
</defs>
</svg>
