<svg width="45" height="44" viewBox="0 0 45 44" fill="none" xmlns="http://www.w3.org/2000/svg">
<mask id="mask0_10402_51239" style="mask-type:alpha" maskUnits="userSpaceOnUse" x="0" y="4" width="40" height="40">
<path fill-rule="evenodd" clip-rule="evenodd" d="M40 16.4576C40 15.9828 40.0002 15.5079 39.9973 15.033C39.9949 14.6329 39.9903 14.233 39.9794 13.8331C39.9559 12.9616 39.9045 12.0826 39.7495 11.2208C39.5923 10.3466 39.3356 9.53299 38.9311 8.73867C38.5335 7.95795 38.014 7.24353 37.3942 6.62417C36.7745 6.0048 36.0599 5.48567 35.2789 5.08825C34.4838 4.68364 33.6693 4.42704 32.7941 4.2699C31.9322 4.11515 31.053 4.06383 30.1815 4.04029C29.7813 4.02947 29.3812 4.0249 28.9809 4.02243C28.5058 4.01951 28.0307 4.01976 27.5555 4.01976L22.0387 4H17.9125L12.4933 4.01976C12.0172 4.01976 11.5411 4.01951 11.0651 4.02243C10.664 4.0249 10.2631 4.02947 9.86221 4.04029C8.98867 4.06383 8.10746 4.11519 7.24354 4.27014C6.36719 4.42723 5.55146 4.68374 4.75526 5.08805C3.97259 5.48553 3.25643 6.0047 2.63547 6.62417C2.0146 7.24348 1.49416 7.95775 1.09577 8.73833C0.69014 9.53304 0.432958 10.3472 0.275386 11.2219C0.120242 12.0833 0.0688344 12.962 0.0451938 13.8331C0.0344172 14.233 0.0297571 14.633 0.0273299 15.033C0.0244173 15.5079 0 16.0979 0 16.5728L0.00014563 21.9169L0 26.0873L0.02466 31.545C0.02466 32.0205 0.0244658 32.4961 0.0273299 32.9716C0.0297571 33.3722 0.0344172 33.7727 0.0452424 34.1731C0.0688344 35.0457 0.120339 35.926 0.275629 36.7889C0.433152 37.6643 0.690286 38.4791 1.09557 39.2744C1.49402 40.0563 2.01455 40.7716 2.63547 41.3919C3.25638 42.0121 3.97235 42.5319 4.75487 42.9299C5.55156 43.335 6.36767 43.592 7.24456 43.7493C8.1081 43.9043 8.98901 43.9557 9.86221 43.9793C10.2631 43.9901 10.664 43.9947 11.0651 43.9971C11.5412 44 12.0172 43.9999 12.4933 43.9999L17.9615 44H22.0979L27.5555 43.9998C28.0307 43.9998 28.5058 44 28.9809 43.9971C29.3812 43.9947 29.7813 43.9901 30.1815 43.9793C31.0533 43.9557 31.9328 43.9042 32.7951 43.7491C33.6698 43.5918 34.4839 43.335 35.2786 42.9301C36.0597 42.5321 36.7745 42.0122 37.3942 41.3919C38.0139 40.7717 38.5333 40.0565 38.931 39.2748C39.3357 38.479 39.5924 37.6639 39.7497 36.7879C39.9046 35.9253 39.9559 35.0454 39.9795 34.1731C39.9903 33.7726 39.9949 33.3721 39.9973 32.9716C40.0002 32.4961 40 32.0205 40 31.545C40 31.545 39.9997 26.1837 39.9997 26.0873V21.9126C39.9997 21.8414 40 16.4576 40 16.4576Z" fill="white"/>
</mask>
<g mask="url(#mask0_10402_51239)">
<path fill-rule="evenodd" clip-rule="evenodd" d="M40 16.4576C40 15.9828 40.0002 15.5079 39.9973 15.033C39.9949 14.6329 39.9903 14.233 39.9794 13.8331C39.9559 12.9616 39.9045 12.0826 39.7495 11.2208C39.5923 10.3466 39.3356 9.53299 38.9311 8.73867C38.5335 7.95795 38.014 7.24353 37.3942 6.62417C36.7745 6.0048 36.0599 5.48567 35.2789 5.08825C34.4838 4.68364 33.6693 4.42704 32.7941 4.2699C31.9322 4.11515 31.053 4.06383 30.1815 4.04029C29.7813 4.02947 29.3812 4.0249 28.9809 4.02243C28.5058 4.01951 28.0307 4.01976 27.5555 4.01976L22.0387 4H17.9125L12.4933 4.01976C12.0172 4.01976 11.5411 4.01951 11.0651 4.02243C10.664 4.0249 10.2631 4.02947 9.86221 4.04029C8.98867 4.06383 8.10746 4.11519 7.24354 4.27014C6.36719 4.42723 5.55146 4.68374 4.75526 5.08805C3.97259 5.48553 3.25643 6.0047 2.63547 6.62417C2.0146 7.24348 1.49416 7.95775 1.09577 8.73833C0.69014 9.53304 0.432958 10.3472 0.275386 11.2219C0.120242 12.0833 0.0688344 12.962 0.0451938 13.8331C0.0344172 14.233 0.0297571 14.633 0.0273299 15.033C0.0244173 15.5079 0 16.0979 0 16.5728L0.00014563 21.9169L0 26.0873L0.02466 31.545C0.02466 32.0205 0.0244658 32.4961 0.0273299 32.9716C0.0297571 33.3722 0.0344172 33.7727 0.0452424 34.1731C0.0688344 35.0457 0.120339 35.926 0.275629 36.7889C0.433152 37.6643 0.690286 38.4791 1.09557 39.2744C1.49402 40.0563 2.01455 40.7716 2.63547 41.3919C3.25638 42.0121 3.97235 42.5319 4.75487 42.9299C5.55156 43.335 6.36767 43.592 7.24456 43.7493C8.1081 43.9043 8.98901 43.9557 9.86221 43.9793C10.2631 43.9901 10.664 43.9947 11.0651 43.9971C11.5412 44 12.0172 43.9999 12.4933 43.9999L17.9615 44H22.0979L27.5555 43.9998C28.0307 43.9998 28.5058 44 28.9809 43.9971C29.3812 43.9947 29.7813 43.9901 30.1815 43.9793C31.0533 43.9557 31.9328 43.9042 32.7951 43.7491C33.6698 43.5918 34.4839 43.335 35.2786 42.9301C36.0597 42.5321 36.7745 42.0122 37.3942 41.3919C38.0139 40.7717 38.5333 40.0565 38.931 39.2748C39.3357 38.479 39.5924 37.6639 39.7497 36.7879C39.9046 35.9253 39.9559 35.0454 39.9795 34.1731C39.9903 33.7726 39.9949 33.3721 39.9973 32.9716C40.0002 32.4961 40 32.0205 40 31.545C40 31.545 39.9997 26.1837 39.9997 26.0873V21.9126C39.9997 21.8414 40 16.4576 40 16.4576Z" fill="#143736"/>
<rect opacity="0.4" x="0.169903" y="10.3349" width="39.6602" height="39.6602" rx="8.76214" fill="url(#paint0_linear_10402_51239)" stroke="url(#paint1_linear_10402_51239)" stroke-width="0.339806"/>
<rect x="0.169903" y="16.5" width="39.6602" height="39.6602" rx="8.76214" fill="url(#paint2_linear_10402_51239)" stroke="url(#paint3_linear_10402_51239)" stroke-width="0.339806"/>
<g filter="url(#filter0_dddd_10402_51239)">
<path d="M13.1387 26.2337L18.8354 23.1782L17.8776 21.3301L12.6614 23.4483C12.527 23.5029 12.3781 23.5029 12.2438 23.4483L7.02607 21.3301L6.06836 23.1782L11.765 26.2337L6.06836 29.2878L7.02607 31.1359L12.2423 29.0177C12.3767 28.9631 12.5256 28.9631 12.6599 29.0177L17.8762 31.1359L18.8339 29.2878L13.1373 26.2323L13.1387 26.2337Z" fill="#000F0E"/>
</g>
</g>
<g clip-path="url(#clip0_10402_51239)">
<path fill-rule="evenodd" clip-rule="evenodd" d="M44.3235 3.83025L44.6985 2.91125C44.6985 2.91125 44.2212 2.4005 43.6417 1.82175C43.0625 1.243 41.8355 1.5835 41.8355 1.5835L40.4382 -1.51575e-07L35.5305 -7.13299e-08L34.1332 1.5835C34.1332 1.5835 32.9062 1.243 32.327 1.82175C31.7475 2.4005 31.2705 2.91125 31.2705 2.91125L31.6455 3.83025L31.168 5.192C31.168 5.192 32.5715 10.501 32.736 11.1495C33.0597 12.426 33.2812 12.9195 34.2015 13.5665C35.1215 14.2133 36.7915 15.3365 37.064 15.507C37.3367 15.677 37.6777 15.967 37.9845 15.967C38.2912 15.967 38.632 15.677 38.9045 15.507C39.1772 15.3368 40.847 14.2133 41.7675 13.5665C42.6875 12.9198 42.9092 12.426 43.233 11.1495C43.3972 10.501 44.8005 5.192 44.8005 5.192L44.3235 3.83025Z" fill="url(#paint4_linear_10402_51239)"/>
<path fill-rule="evenodd" clip-rule="evenodd" d="M39.725 2.87709C39.9295 2.87709 41.4462 2.58784 41.4462 2.58784C41.4462 2.58784 43.2435 4.75784 43.2435 5.22184C43.2435 5.60534 43.0887 5.75534 42.9067 5.93234C42.8687 5.96934 42.8292 6.00734 42.79 6.04934L41.4425 7.47859C41.428 7.49379 41.4133 7.50879 41.3985 7.52359C41.264 7.65859 41.066 7.85759 41.2055 8.18809L41.2342 8.25534C41.3875 8.61334 41.5767 9.05534 41.336 9.50284C41.0797 9.97934 40.641 10.2973 40.3597 10.2446C40.0787 10.1921 39.4182 9.84734 39.1755 9.69009C38.9327 9.53259 38.163 8.89859 38.163 8.65584C38.163 8.45359 38.7165 8.11709 38.9855 7.95334C39.039 7.92084 39.0812 7.89534 39.1055 7.87884C39.1332 7.86009 39.1797 7.83134 39.237 7.79584C39.4822 7.64334 39.9255 7.36834 39.9367 7.24659C39.9505 7.09609 39.9452 7.05209 39.7472 6.68059C39.7052 6.60159 39.656 6.51709 39.6052 6.42959C39.4167 6.10584 39.2057 5.74334 39.2527 5.48359C39.3052 5.19034 39.7652 5.02234 40.1547 4.87984C40.2032 4.86234 40.251 4.84484 40.2965 4.82759L40.7022 4.67534C41.0912 4.52984 41.5232 4.36809 41.5947 4.33534C41.6932 4.29009 41.6677 4.24659 41.369 4.21834C41.3206 4.2136 41.2723 4.2086 41.224 4.20334C40.854 4.16409 40.1717 4.09184 39.8402 4.18409C39.775 4.20234 39.702 4.22209 39.6252 4.24284C39.2527 4.34359 38.796 4.46709 38.752 4.53834C38.7445 4.55084 38.737 4.56159 38.7297 4.57159C38.6877 4.63109 38.6605 4.67009 38.707 4.92309C38.7207 4.99859 38.7492 5.14684 38.7845 5.33034C38.887 5.86734 39.0477 6.70484 39.068 6.89284C39.0707 6.91934 39.074 6.94459 39.077 6.96909C39.1027 7.17909 39.1197 7.31884 38.8757 7.37459L38.812 7.38909C38.5365 7.45209 38.1327 7.54484 37.987 7.54484C37.841 7.54484 37.437 7.45234 37.1615 7.38909L37.098 7.37459C36.854 7.31884 36.8712 7.17909 36.897 6.96909C36.9 6.94459 36.903 6.91909 36.9057 6.89284C36.926 6.70459 37.087 5.86484 37.19 5.32809C37.225 5.14559 37.2532 4.99809 37.267 4.92309C37.3132 4.67009 37.286 4.63109 37.244 4.57159C37.2362 4.56067 37.2287 4.54959 37.2215 4.53834C37.178 4.46709 36.7215 4.34359 36.3487 4.24284C36.272 4.22209 36.1987 4.20234 36.1337 4.18409C35.802 4.09159 35.12 4.16409 34.75 4.20334C34.6935 4.20934 34.6445 4.21459 34.605 4.21834C34.306 4.24659 34.2807 4.29009 34.3792 4.33534C34.4505 4.36809 34.8825 4.52984 35.2712 4.67534C35.4205 4.73109 35.5637 4.78459 35.6772 4.82759C35.723 4.84484 35.7705 4.86209 35.8192 4.88009C36.2087 5.02259 36.6687 5.19034 36.7212 5.48359C36.768 5.74334 36.557 6.10584 36.3687 6.42959C36.3177 6.51709 36.2687 6.60159 36.2265 6.68059C36.0287 7.05209 36.0235 7.09609 36.0372 7.24659C36.0482 7.36859 36.4912 7.64334 36.7367 7.79584C36.794 7.83134 36.8405 7.86009 36.8682 7.87884C36.8927 7.89534 36.9347 7.92084 36.9882 7.95334C37.2572 8.11684 37.8107 8.45334 37.8107 8.65584C37.8107 8.89834 37.0412 9.53259 36.7982 9.69009C36.5557 9.84759 35.8952 10.1921 35.614 10.2446C35.333 10.2971 34.894 9.97934 34.638 9.50309C34.3972 9.05534 34.5862 8.61334 34.7395 8.25559L34.7682 8.18809C34.908 7.85759 34.71 7.65859 34.5752 7.52359C34.5604 7.50879 34.5459 7.49379 34.5315 7.47859L33.184 6.04934C33.1445 6.00759 33.105 5.96934 33.067 5.93234C32.885 5.75559 32.7305 5.60534 32.7305 5.22184C32.7305 4.75809 34.5277 2.58784 34.5277 2.58784C34.5277 2.58784 36.0442 2.87709 36.2487 2.87709C36.412 2.87709 36.727 2.76884 37.0555 2.65584C37.1387 2.62734 37.2227 2.59834 37.3055 2.57084C37.7142 2.43459 37.987 2.43359 37.987 2.43359C37.987 2.43359 38.2595 2.43459 38.6685 2.57084C38.751 2.59834 38.8352 2.62734 38.9185 2.65584C39.2467 2.76884 39.562 2.87709 39.725 2.87709ZM39.4647 10.5536C39.7852 10.7186 40.0127 10.8356 40.0987 10.8893C40.21 10.9588 40.1422 11.0901 40.0407 11.1618C39.9395 11.2331 38.5775 12.2866 38.4455 12.4031L38.3917 12.4508C38.2645 12.5656 38.102 12.7118 37.9867 12.7118C37.8717 12.7118 37.7092 12.5653 37.5817 12.4508L37.5285 12.4031C37.396 12.2866 36.0342 11.2331 35.933 11.1616C35.8317 11.0901 35.7637 10.9591 35.875 10.8891C35.961 10.8356 36.1887 10.7183 36.5097 10.5531L36.8147 10.3958C37.2947 10.1478 37.8935 9.93659 37.987 9.93659C38.0802 9.93659 38.6787 10.1476 39.1592 10.3958C39.2682 10.4523 39.3705 10.5053 39.4647 10.5536Z" fill="white"/>
<path fill-rule="evenodd" clip-rule="evenodd" d="M41.8366 1.5835L40.4394 -1.32625e-07L35.5316 -5.23795e-08L34.1344 1.5835C34.1344 1.5835 32.9074 1.243 32.3281 1.82175C32.3281 1.82175 33.9641 1.67425 34.5264 2.58775C34.5264 2.58775 36.0429 2.877 36.2474 2.877C36.4519 2.877 36.8949 2.707 37.3039 2.57075C37.7129 2.4345 37.9856 2.4335 37.9856 2.4335C37.9856 2.4335 38.2581 2.4345 38.6671 2.57075C39.0761 2.707 39.5191 2.877 39.7236 2.877C39.9281 2.877 41.4449 2.58775 41.4449 2.58775C42.0071 1.67425 43.6429 1.82175 43.6429 1.82175C43.0636 1.243 41.8366 1.5835 41.8366 1.5835Z" fill="url(#paint5_linear_10402_51239)"/>
</g>
<defs>
<filter id="filter0_dddd_10402_51239" x="-4.9996" y="12.398" width="34.9035" height="31.9416" filterUnits="userSpaceOnUse" color-interpolation-filters="sRGB">
<feFlood flood-opacity="0" result="BackgroundImageFix"/>
<feColorMatrix in="SourceAlpha" type="matrix" values="0 0 0 0 0 0 0 0 0 0 0 0 0 0 0 0 0 0 127 0" result="hardAlpha"/>
<feOffset dy="0.970874"/>
<feGaussianBlur stdDeviation="1.26214"/>
<feComposite in2="hardAlpha" operator="out"/>
<feColorMatrix type="matrix" values="0 0 0 0 0.137255 0 0 0 0 0.968627 0 0 0 0 0.866667 0 0 0 0.1 0"/>
<feBlend mode="normal" in2="BackgroundImageFix" result="effect1_dropShadow_10402_51239"/>
<feColorMatrix in="SourceAlpha" type="matrix" values="0 0 0 0 0 0 0 0 0 0 0 0 0 0 0 0 0 0 127 0" result="hardAlpha"/>
<feOffset dy="2.13592"/>
<feGaussianBlur stdDeviation="5.53398"/>
<feComposite in2="hardAlpha" operator="out"/>
<feColorMatrix type="matrix" values="0 0 0 0 0.137255 0 0 0 0 0.968627 0 0 0 0 0.866667 0 0 0 0.3 0"/>
<feBlend mode="normal" in2="effect1_dropShadow_10402_51239" result="effect2_dropShadow_10402_51239"/>
<feColorMatrix in="SourceAlpha" type="matrix" values="0 0 0 0 0 0 0 0 0 0 0 0 0 0 0 0 0 0 127 0" result="hardAlpha"/>
<feOffset dy="0.291262"/>
<feGaussianBlur stdDeviation="0.533981"/>
<feComposite in2="hardAlpha" operator="out"/>
<feColorMatrix type="matrix" values="0 0 0 0 0 0 0 0 0 0 0 0 0 0 0 0 0 0 0.35 0"/>
<feBlend mode="normal" in2="effect2_dropShadow_10402_51239" result="effect3_dropShadow_10402_51239"/>
<feColorMatrix in="SourceAlpha" type="matrix" values="0 0 0 0 0 0 0 0 0 0 0 0 0 0 0 0 0 0 127 0" result="hardAlpha"/>
<feOffset dy="0.194175"/>
<feGaussianBlur stdDeviation="0.0970874"/>
<feComposite in2="hardAlpha" operator="out"/>
<feColorMatrix type="matrix" values="0 0 0 0 0 0 0 0 0 0 0 0 0 0 0 0 0 0 0.25 0"/>
<feBlend mode="normal" in2="effect3_dropShadow_10402_51239" result="effect4_dropShadow_10402_51239"/>
<feBlend mode="normal" in="SourceGraphic" in2="effect4_dropShadow_10402_51239" result="shape"/>
</filter>
<linearGradient id="paint0_linear_10402_51239" x1="20.2306" y1="19.1846" x2="20.2306" y2="39.6748" gradientUnits="userSpaceOnUse">
<stop stop-color="#00FFE0"/>
<stop offset="1" stop-color="#00FFE0"/>
</linearGradient>
<linearGradient id="paint1_linear_10402_51239" x1="6.49826" y1="30.7502" x2="42.1154" y2="27.4436" gradientUnits="userSpaceOnUse">
<stop stop-color="#00FFE0"/>
<stop offset="1" stop-color="#4CFFE9"/>
</linearGradient>
<linearGradient id="paint2_linear_10402_51239" x1="20.2306" y1="25.3497" x2="20.2306" y2="45.8399" gradientUnits="userSpaceOnUse">
<stop stop-color="#00FFE0"/>
<stop offset="1" stop-color="#00FFE0"/>
</linearGradient>
<linearGradient id="paint3_linear_10402_51239" x1="6.49826" y1="36.9152" x2="42.1154" y2="33.6087" gradientUnits="userSpaceOnUse">
<stop stop-color="#00FFE0"/>
<stop offset="1" stop-color="#4CFFE9"/>
</linearGradient>
<linearGradient id="paint4_linear_10402_51239" x1="31.1682" y1="16.0798" x2="44.8005" y2="16.0798" gradientUnits="userSpaceOnUse">
<stop stop-color="#FF5500"/>
<stop offset="0.41" stop-color="#FF5500"/>
<stop offset="0.582" stop-color="#FF2000"/>
<stop offset="1" stop-color="#FF2000"/>
</linearGradient>
<linearGradient id="paint5_linear_10402_51239" x1="32.5711" y1="2.8665" x2="43.6429" y2="2.8665" gradientUnits="userSpaceOnUse">
<stop stop-color="#FF452A"/>
<stop offset="1" stop-color="#FF2000"/>
</linearGradient>
<clipPath id="clip0_10402_51239">
<rect width="14" height="16" fill="white" transform="translate(31)"/>
</clipPath>
</defs>
</svg>
