<svg width="54" height="54" viewBox="0 0 54 54" fill="none" xmlns="http://www.w3.org/2000/svg">
<mask id="mask0_10855_18233" style="mask-type:alpha" maskUnits="userSpaceOnUse" x="0" y="0" width="54" height="54">
<path fill-rule="evenodd" clip-rule="evenodd" d="M53.9993 16.9434C53.9993 16.3103 53.9996 15.6771 53.9957 15.0439C53.9925 14.5105 53.9864 13.9772 53.9719 13.4441C53.9406 12.2821 53.872 11.1101 53.6654 9.96105C53.4558 8.79542 53.1135 7.71057 52.5742 6.65148C52.044 5.61051 51.3513 4.65796 50.5249 3.83214C49.6987 3.00632 48.7459 2.31415 47.7046 1.78425C46.6444 1.24477 45.5584 0.902635 44.3915 0.693121C43.2423 0.486779 42.07 0.418365 40.908 0.386973C40.3745 0.37254 39.8409 0.366456 39.3073 0.363155C38.6738 0.359271 38.0402 0.359595 37.4067 0.359595L30.0509 0.333252H24.5493L17.3237 0.359595C16.6889 0.359595 16.0542 0.359271 15.4194 0.363155C14.8847 0.366456 14.3502 0.37254 13.8156 0.386973C12.6509 0.418365 11.476 0.486844 10.3241 0.693445C9.1556 0.902894 8.06797 1.2449 7.00636 1.78399C5.96281 2.31396 5.00793 3.00619 4.17997 3.83214C3.35214 4.6579 2.65823 5.61026 2.12704 6.65103C1.5862 7.71064 1.24329 8.79613 1.0332 9.96241C0.826338 11.111 0.757795 12.2826 0.726274 13.4441C0.711905 13.9773 0.705692 14.5105 0.702455 15.0439C0.698572 15.6771 0.666016 16.4637 0.666016 17.0969L0.66621 24.2225L0.666016 29.783L0.698896 37.0599C0.698896 37.694 0.698637 38.328 0.702455 38.962C0.705692 39.4962 0.711905 40.0301 0.726339 40.564C0.757795 41.7275 0.826468 42.9012 1.03352 44.0518C1.24355 45.219 1.5864 46.3054 2.12678 47.3658C2.65804 48.4083 3.35208 49.3621 4.17997 50.1891C5.00786 51.016 5.96248 51.7091 7.00584 52.2398C8.0681 52.78 9.15625 53.1226 10.3254 53.3323C11.4768 53.539 12.6514 53.6076 13.8156 53.639C14.3502 53.6534 14.8847 53.6595 15.4195 53.6628C16.0543 53.6667 16.6889 53.6664 17.3237 53.6664L24.6146 53.6666H30.1299L37.4067 53.6663C38.0402 53.6663 38.6738 53.6667 39.3073 53.6628C39.8409 53.6595 40.3745 53.6534 40.908 53.639C42.0704 53.6075 43.2431 53.5389 44.3928 53.3321C45.559 53.1223 46.6445 52.7799 47.7041 52.24C48.7457 51.7094 49.6987 51.0162 50.5249 50.1891C51.3512 49.3622 52.0438 48.4085 52.574 47.3663C53.1137 46.3053 53.4559 45.2184 53.6656 44.0504C53.8721 42.9003 53.9406 41.7271 53.972 40.564C53.9864 40.0301 53.9925 39.4961 53.9957 38.962C53.9997 38.328 53.9993 37.694 53.9993 37.0599C53.9993 37.0599 53.999 29.9115 53.999 29.783V24.2167C53.999 24.1218 53.9993 16.9434 53.9993 16.9434Z" fill="white"/>
</mask>
<g mask="url(#mask0_10855_18233)">
<path fill-rule="evenodd" clip-rule="evenodd" d="M53.9993 16.9434C53.9993 16.3103 53.9996 15.6771 53.9957 15.0439C53.9925 14.5105 53.9864 13.9772 53.9719 13.4441C53.9406 12.2821 53.872 11.1101 53.6654 9.96105C53.4558 8.79542 53.1135 7.71057 52.5742 6.65148C52.044 5.61051 51.3513 4.65796 50.5249 3.83214C49.6987 3.00632 48.7459 2.31415 47.7046 1.78425C46.6444 1.24477 45.5584 0.902635 44.3915 0.693121C43.2423 0.486779 42.07 0.418365 40.908 0.386973C40.3745 0.37254 39.8409 0.366456 39.3073 0.363155C38.6738 0.359271 38.0402 0.359595 37.4067 0.359595L30.0509 0.333252H24.5493L17.3237 0.359595C16.6889 0.359595 16.0542 0.359271 15.4194 0.363155C14.8847 0.366456 14.3502 0.37254 13.8156 0.386973C12.6509 0.418365 11.476 0.486844 10.3241 0.693445C9.1556 0.902894 8.06797 1.2449 7.00636 1.78399C5.96281 2.31396 5.00793 3.00619 4.17997 3.83214C3.35214 4.6579 2.65823 5.61026 2.12704 6.65103C1.5862 7.71064 1.24329 8.79613 1.0332 9.96241C0.826338 11.111 0.757795 12.2826 0.726274 13.4441C0.711905 13.9773 0.705692 14.5105 0.702455 15.0439C0.698572 15.6771 0.666016 16.4637 0.666016 17.0969L0.66621 24.2225L0.666016 29.783L0.698896 37.0599C0.698896 37.694 0.698637 38.328 0.702455 38.962C0.705692 39.4962 0.711905 40.0301 0.726339 40.564C0.757795 41.7275 0.826468 42.9012 1.03352 44.0518C1.24355 45.219 1.5864 46.3054 2.12678 47.3658C2.65804 48.4083 3.35208 49.3621 4.17997 50.1891C5.00786 51.016 5.96248 51.7091 7.00584 52.2398C8.0681 52.78 9.15625 53.1226 10.3254 53.3323C11.4768 53.539 12.6514 53.6076 13.8156 53.639C14.3502 53.6534 14.8847 53.6595 15.4195 53.6628C16.0543 53.6667 16.6889 53.6664 17.3237 53.6664L24.6146 53.6666H30.1299L37.4067 53.6663C38.0402 53.6663 38.6738 53.6667 39.3073 53.6628C39.8409 53.6595 40.3745 53.6534 40.908 53.639C42.0704 53.6075 43.2431 53.5389 44.3928 53.3321C45.559 53.1223 46.6445 52.7799 47.7041 52.24C48.7457 51.7094 49.6987 51.0162 50.5249 50.1891C51.3512 49.3622 52.0438 48.4085 52.574 47.3663C53.1137 46.3053 53.4559 45.2184 53.6656 44.0504C53.8721 42.9003 53.9406 41.7271 53.972 40.564C53.9864 40.0301 53.9925 39.4961 53.9957 38.962C53.9997 38.328 53.9993 37.694 53.9993 37.0599C53.9993 37.0599 53.999 29.9115 53.999 29.783V24.2167C53.999 24.1218 53.9993 16.9434 53.9993 16.9434Z" fill="#143736"/>
<rect opacity="0.4" x="0.892553" y="8.77988" width="52.8803" height="52.8803" rx="11.6828" fill="url(#paint0_linear_10855_18233)" stroke="url(#paint1_linear_10855_18233)" stroke-width="0.453074"/>
<rect x="0.892553" y="17" width="52.8803" height="52.8803" rx="11.6828" fill="url(#paint2_linear_10855_18233)" stroke="url(#paint3_linear_10855_18233)" stroke-width="0.453074"/>
<g filter="url(#filter0_dddd_10855_18233)">
<path d="M18.185 29.9783L25.7805 25.9042L24.5035 23.4401L17.5485 26.2644C17.3694 26.3372 17.1708 26.3372 16.9918 26.2644L10.0348 23.4401L8.75781 25.9042L16.3533 29.9783L8.75781 34.0504L10.0348 36.5145L16.9898 33.6902C17.1689 33.6174 17.3674 33.6174 17.5465 33.6902L24.5016 36.5145L25.7785 34.0504L18.183 29.9763L18.185 29.9783Z" fill="#000F0E"/>
</g>
</g>
<defs>
<filter id="filter0_dddd_10855_18233" x="-5.99947" y="11.5307" width="46.538" height="42.589" filterUnits="userSpaceOnUse" color-interpolation-filters="sRGB">
<feFlood flood-opacity="0" result="BackgroundImageFix"/>
<feColorMatrix in="SourceAlpha" type="matrix" values="0 0 0 0 0 0 0 0 0 0 0 0 0 0 0 0 0 0 127 0" result="hardAlpha"/>
<feOffset dy="1.2945"/>
<feGaussianBlur stdDeviation="1.68285"/>
<feComposite in2="hardAlpha" operator="out"/>
<feColorMatrix type="matrix" values="0 0 0 0 0.137255 0 0 0 0 0.968627 0 0 0 0 0.866667 0 0 0 0.1 0"/>
<feBlend mode="normal" in2="BackgroundImageFix" result="effect1_dropShadow_10855_18233"/>
<feColorMatrix in="SourceAlpha" type="matrix" values="0 0 0 0 0 0 0 0 0 0 0 0 0 0 0 0 0 0 127 0" result="hardAlpha"/>
<feOffset dy="2.8479"/>
<feGaussianBlur stdDeviation="7.37864"/>
<feComposite in2="hardAlpha" operator="out"/>
<feColorMatrix type="matrix" values="0 0 0 0 0.137255 0 0 0 0 0.968627 0 0 0 0 0.866667 0 0 0 0.3 0"/>
<feBlend mode="normal" in2="effect1_dropShadow_10855_18233" result="effect2_dropShadow_10855_18233"/>
<feColorMatrix in="SourceAlpha" type="matrix" values="0 0 0 0 0 0 0 0 0 0 0 0 0 0 0 0 0 0 127 0" result="hardAlpha"/>
<feOffset dy="0.38835"/>
<feGaussianBlur stdDeviation="0.711974"/>
<feComposite in2="hardAlpha" operator="out"/>
<feColorMatrix type="matrix" values="0 0 0 0 0 0 0 0 0 0 0 0 0 0 0 0 0 0 0.35 0"/>
<feBlend mode="normal" in2="effect2_dropShadow_10855_18233" result="effect3_dropShadow_10855_18233"/>
<feColorMatrix in="SourceAlpha" type="matrix" values="0 0 0 0 0 0 0 0 0 0 0 0 0 0 0 0 0 0 127 0" result="hardAlpha"/>
<feOffset dy="0.2589"/>
<feGaussianBlur stdDeviation="0.12945"/>
<feComposite in2="hardAlpha" operator="out"/>
<feColorMatrix type="matrix" values="0 0 0 0 0 0 0 0 0 0 0 0 0 0 0 0 0 0 0.25 0"/>
<feBlend mode="normal" in2="effect3_dropShadow_10855_18233" result="effect4_dropShadow_10855_18233"/>
<feBlend mode="normal" in="SourceGraphic" in2="effect4_dropShadow_10855_18233" result="shape"/>
</filter>
<linearGradient id="paint0_linear_10855_18233" x1="27.6401" y1="20.5795" x2="27.6401" y2="47.8998" gradientUnits="userSpaceOnUse">
<stop stop-color="#00FFE0"/>
<stop offset="1" stop-color="#00FFE0"/>
</linearGradient>
<linearGradient id="paint1_linear_10855_18233" x1="9.33036" y1="36.0002" x2="56.8198" y2="31.5915" gradientUnits="userSpaceOnUse">
<stop stop-color="#00FFE0"/>
<stop offset="1" stop-color="#4CFFE9"/>
</linearGradient>
<linearGradient id="paint2_linear_10855_18233" x1="27.6401" y1="28.7996" x2="27.6401" y2="56.1198" gradientUnits="userSpaceOnUse">
<stop stop-color="#00FFE0"/>
<stop offset="1" stop-color="#00FFE0"/>
</linearGradient>
<linearGradient id="paint3_linear_10855_18233" x1="9.33036" y1="44.2203" x2="56.8198" y2="39.8116" gradientUnits="userSpaceOnUse">
<stop stop-color="#00FFE0"/>
<stop offset="1" stop-color="#4CFFE9"/>
</linearGradient>
</defs>
</svg>
