<svg width="54" height="54" viewBox="0 0 54 54" fill="none" xmlns="http://www.w3.org/2000/svg">
<path d="M26.665 1.00024C32.969 1.00024 37.63 1.00093 41.2061 1.48169C44.763 1.95991 47.147 2.9021 48.9551 4.71021C50.7629 6.51824 51.7044 8.90164 52.1826 12.4583C52.6634 16.0344 52.665 20.696 52.665 27.0002C52.665 33.3042 52.6634 37.9652 52.1826 41.5413C51.7044 45.0982 50.7632 47.4822 48.9551 49.2903C47.147 51.0984 44.763 52.0396 41.2061 52.5178C37.63 52.9986 32.969 53.0002 26.665 53.0002C20.3608 53.0002 15.6992 52.9986 12.123 52.5178C8.56644 52.0396 6.18304 51.0981 4.375 49.2903C2.56689 47.4822 1.6247 45.0982 1.14648 41.5413C0.665722 37.9652 0.665039 33.3042 0.665039 27.0002C0.665039 20.696 0.66569 16.0344 1.14648 12.4583C1.62471 8.90141 2.56692 6.51829 4.375 4.71021C6.18308 2.90212 8.5662 1.95991 12.123 1.48169C15.6992 1.00089 20.3608 1.00024 26.665 1.00024Z" fill="white"/>
<path d="M26.665 1.00024C32.969 1.00024 37.63 1.00093 41.2061 1.48169C44.763 1.95991 47.147 2.9021 48.9551 4.71021C50.7629 6.51824 51.7044 8.90164 52.1826 12.4583C52.6634 16.0344 52.665 20.696 52.665 27.0002C52.665 33.3042 52.6634 37.9652 52.1826 41.5413C51.7044 45.0982 50.7632 47.4822 48.9551 49.2903C47.147 51.0984 44.763 52.0396 41.2061 52.5178C37.63 52.9986 32.969 53.0002 26.665 53.0002C20.3608 53.0002 15.6992 52.9986 12.123 52.5178C8.56644 52.0396 6.18304 51.0981 4.375 49.2903C2.56689 47.4822 1.6247 45.0982 1.14648 41.5413C0.665722 37.9652 0.665039 33.3042 0.665039 27.0002C0.665039 20.696 0.66569 16.0344 1.14648 12.4583C1.62471 8.90141 2.56692 6.51829 4.375 4.71021C6.18308 2.90212 8.5662 1.95991 12.123 1.48169C15.6992 1.00089 20.3608 1.00024 26.665 1.00024Z" stroke="#E5E5E5" stroke-width="1.33333"/>
<path d="M40.7441 27.3333C40.7441 26.2933 40.6507 25.2933 40.4774 24.3333H26.6641V30.0133H34.5574C34.2107 31.8399 33.1707 33.3866 31.6107 34.4266V38.1199H36.3707C39.1441 35.5599 40.7441 31.7999 40.7441 27.3333Z" fill="#4285F4"/>
<path d="M26.6636 41.6666C30.6236 41.6666 33.9436 40.3599 36.3703 38.1199L31.6103 34.4266C30.3036 35.3066 28.637 35.8399 26.6636 35.8399C22.8503 35.8399 19.6103 33.2666 18.4503 29.7999H13.5703V33.5866C15.9836 38.3733 20.9303 41.6666 26.6636 41.6666Z" fill="#34A853"/>
<path d="M18.4514 29.7865C18.158 28.9065 17.9847 27.9732 17.9847 26.9998C17.9847 26.0265 18.158 25.0932 18.4514 24.2132V20.4265H13.5714C12.5714 22.3998 11.998 24.6265 11.998 26.9998C11.998 29.3732 12.5714 31.5998 13.5714 33.5732L17.3714 30.6132L18.4514 29.7865Z" fill="#FBBC05"/>
<path d="M26.6636 18.1733C28.8236 18.1733 30.7436 18.9199 32.277 20.3599L36.477 16.1599C33.9303 13.7866 30.6236 12.3333 26.6636 12.3333C20.9303 12.3333 15.9836 15.6266 13.5703 20.4266L18.4503 24.2133C19.6103 20.7466 22.8503 18.1733 26.6636 18.1733Z" fill="#EA4335"/>
</svg>
