<svg width="54" height="54" viewBox="0 0 54 54" fill="none" xmlns="http://www.w3.org/2000/svg">
<path d="M-0.00195312 26.9999C-0.00195312 14.4291 -0.00195312 8.14374 3.90329 4.2385C7.80853 0.333252 14.0939 0.333252 26.6647 0.333252V0.333252C39.2355 0.333252 45.5209 0.333252 49.4261 4.2385C53.3314 8.14374 53.3314 14.4291 53.3314 26.9999V26.9999C53.3314 39.5707 53.3314 45.8561 49.4261 49.7613C45.5209 53.6666 39.2355 53.6666 26.6647 53.6666V53.6666C14.0939 53.6666 7.80853 53.6666 3.90329 49.7613C-0.00195312 45.8561 -0.00195312 39.5707 -0.00195312 26.9999V26.9999Z" fill="#23F7DD"/>
<path d="M26.665 1.00024C32.969 1.00024 37.63 1.00093 41.2061 1.48169C44.763 1.95991 47.147 2.9021 48.9551 4.71021C50.7629 6.51824 51.7044 8.90164 52.1826 12.4583C52.6634 16.0344 52.665 20.696 52.665 27.0002C52.665 33.3042 52.6634 37.9652 52.1826 41.5413C51.7044 45.0982 50.7632 47.4822 48.9551 49.2903C47.147 51.0984 44.763 52.0396 41.2061 52.5178C37.63 52.9986 32.969 53.0002 26.665 53.0002C20.3608 53.0002 15.6992 52.9986 12.123 52.5178C8.56644 52.0396 6.18304 51.0981 4.375 49.2903C2.56689 47.4822 1.6247 45.0982 1.14648 41.5413C0.665721 37.9652 0.665039 33.3042 0.665039 27.0002C0.665039 20.696 0.66569 16.0344 1.14648 12.4583C1.62471 8.90141 2.56692 6.51829 4.375 4.71021C6.18308 2.90212 8.5662 1.95991 12.123 1.48169C15.6992 1.00089 20.3608 1.00024 26.665 1.00024Z" stroke="black" stroke-opacity="0.16" stroke-width="1.33333"/>
<path d="M28.9776 27.0012L41.248 21.2884L39.1852 17.8331L27.9493 21.7934C27.66 21.8956 27.3392 21.8956 27.0499 21.7934L15.8109 17.8331L13.748 21.2884L26.0185 27.0012L13.748 32.7112L15.8109 36.1665L27.0468 32.2062C27.3361 32.1041 27.6569 32.1041 27.9462 32.2062L39.182 36.1665L41.245 32.7112L28.9745 26.9985L28.9776 27.0012Z" fill="black"/>
</svg>
